<svg width="30" height="30" viewBox="0 0 30 30" fill="none" xmlns="http://www.w3.org/2000/svg">
<path d="M15.5996 0C22.3913 0 25.7833 6.53174e-05 27.8916 2.1084C29.9999 4.21673 30 7.60872 30 14.4004V15.5996C30 22.3913 29.9999 25.7833 27.8916 27.8916C25.7833 29.9999 22.3913 30 15.5996 30H14.4004C7.60872 30 4.21673 29.9999 2.1084 27.8916C6.53174e-05 25.7833 0 22.3913 0 15.5996V14.4004C0 7.60872 6.51783e-05 4.21673 2.1084 2.1084C4.21673 6.51783e-05 7.60872 0 14.4004 0H15.5996ZM17.7852 5.55859C17.5711 5.50566 17.3476 5.50201 17.1318 5.54785C16.9161 5.59376 16.7131 5.68774 16.5391 5.82324C16.365 5.95881 16.2234 6.1321 16.126 6.33008C16.0286 6.5281 15.9777 6.74612 15.9766 6.9668V8.72461L12.3086 7.80859C12.0945 7.75566 11.871 7.75201 11.6553 7.79785C11.4395 7.84376 11.2366 7.93774 11.0625 8.07324C10.8884 8.20881 10.7468 8.3821 10.6494 8.58008C10.552 8.7781 10.5011 8.99612 10.5 9.2168V10.9697L6.83301 10.0586C6.61711 9.99946 6.39056 9.99109 6.1709 10.0342C5.95113 10.0773 5.74401 10.1702 5.56641 10.3066C5.38885 10.443 5.24577 10.6191 5.14746 10.8203C5.04915 11.0215 4.99847 11.2428 5 11.4668V21.2334C5.00306 21.6411 5.14382 22.0359 5.39941 22.3535C5.65503 22.6711 6.0106 22.8932 6.4082 22.9834L12.2334 24.4414C12.4476 24.4944 12.6709 24.4981 12.8867 24.4521C13.1025 24.4062 13.3054 24.3123 13.4795 24.1768C13.6535 24.0412 13.7942 23.8678 13.8916 23.6699C13.989 23.4719 14.0409 23.2539 14.042 23.0332V21.2793L17.708 22.1914C17.9222 22.2444 18.1465 22.2481 18.3623 22.2021C18.5778 22.1562 18.7802 22.0621 18.9541 21.9268C19.1281 21.7912 19.2698 21.6178 19.3672 21.4199C19.4646 21.2219 19.5155 21.0039 19.5166 20.7832V19.0283L23.1934 19.9414C23.4075 19.9943 23.6309 19.9981 23.8467 19.9521C24.0625 19.9062 24.2654 19.8123 24.4395 19.6768C24.6134 19.5413 24.7542 19.3678 24.8516 19.1699C24.949 18.9719 25.0008 18.7539 25.002 18.5332V8.7666C25.0002 8.36244 24.8628 7.97046 24.6123 7.65332C24.3615 7.33609 24.0112 7.11163 23.6182 7.0166L17.7852 5.55859Z" fill="white"/>
<path d="M15.6845 21.6668C15.56 21.6363 15.4489 21.5661 15.3677 21.4669C15.2866 21.3677 15.2398 21.2449 15.2345 21.1168L14.9845 13.6168C14.9367 13.175 14.7628 12.7562 14.4835 12.4104C14.2042 12.0647 13.8314 11.8065 13.4095 11.6668C13.3896 11.6583 13.3671 11.6579 13.3469 11.6657C13.3267 11.6735 13.3103 11.6888 13.3012 11.7085C13.2859 11.7241 13.2773 11.745 13.2773 11.7668C13.2773 11.7887 13.2859 11.8096 13.3012 11.8252C13.5225 11.9964 13.7015 12.2162 13.8243 12.4676C13.9471 12.7191 14.0105 12.9954 14.0095 13.2752V21.2668L15.6845 21.6668Z" fill="white"/>
<path d="M21.1493 19.442C21.0264 19.4099 20.9171 19.3391 20.8376 19.2401C20.758 19.141 20.7125 19.019 20.7077 18.892L20.4577 11.392C20.4181 10.9416 20.248 10.5126 19.9682 10.1573C19.6885 9.80211 19.3112 9.53616 18.8827 9.39205C18.8663 9.3785 18.8456 9.37109 18.8243 9.37109C18.8031 9.37109 18.7824 9.3785 18.766 9.39205C18.7507 9.40763 18.7422 9.42857 18.7422 9.45038C18.7422 9.4722 18.7507 9.49314 18.766 9.50872C18.985 9.68202 19.1624 9.90226 19.285 10.1532C19.4076 10.4042 19.4723 10.6794 19.4743 10.9587V18.9504L21.1493 19.442Z" fill="white"/>
</svg>
