<svg width="121" height="99" viewBox="0 0 121 99" fill="none" xmlns="http://www.w3.org/2000/svg">
<g clip-path="url(#clip0_2582_69)">
<path d="M109.237 91.6684C108.831 91.6775 108.428 91.7437 108.041 91.8651C107.274 92.1713 106.545 92.5636 105.866 93.0343C103.008 91.9903 100.249 90.6883 97.6248 89.1442C96.0035 88.2733 94.4417 87.295 92.9496 86.2157C90.7751 84.6969 88.6006 83.0796 86.5783 81.375C86.4035 81.6939 86.2073 82.0006 85.9912 82.2929C85.8412 82.4898 85.6777 82.676 85.502 82.8502C90.769 87.677 96.9266 91.4191 103.626 93.8647L105.105 94.4329C105.236 95.0012 105.366 95.5257 105.551 96.1704C105.649 96.4326 105.801 96.7167 105.953 97.0227C106.115 97.2812 106.293 97.5294 106.486 97.7657C106.732 98.0286 107.01 98.2598 107.312 98.4541C107.636 98.6742 108.01 98.8094 108.399 98.8475C108.628 98.9131 108.845 98.9349 109.074 99.0005L109.411 98.4651L106.388 95.0667C106.862 95.2855 107.348 95.4753 107.845 95.6349C108.12 95.7437 108.403 95.8278 108.693 95.8863C109.082 95.9403 109.474 95.9732 109.867 95.9846L111.172 96.072L111.563 95.6021V95.1432L107.638 93.6134L111.857 93.2856L111.987 92.8813C111.622 92.5579 111.233 92.2621 110.824 91.9962C110.629 91.8682 110.411 91.7792 110.183 91.7339C109.869 91.6864 109.553 91.6645 109.237 91.6684Z" fill="#F46A22"/>
<path d="M117.716 77.911C117.323 78.0074 116.954 78.182 116.629 78.4246C115.971 78.9374 115.366 79.5158 114.824 80.1511C111.79 79.9203 108.782 79.4268 105.833 78.6759C104.036 78.2486 102.264 77.7196 100.527 77.0915C97.7963 76.158 95.1146 75.0858 92.4922 73.8789C92.6888 74.4948 92.7077 75.154 92.5466 75.7802V75.9223C98.9119 79.1161 105.829 81.0489 112.922 81.6153C113.454 81.6153 114.009 81.6918 114.509 81.6918C114.755 82.2451 115.05 82.7753 115.39 83.2763C115.547 83.5297 115.75 83.7519 115.988 83.9319C116.188 84.1962 116.444 84.4127 116.738 84.5657C117.021 84.7565 117.333 84.9004 117.662 84.9918C118.043 85.1037 118.441 85.1408 118.836 85.1011C119.086 85.1011 119.304 85.0355 119.554 85.0355L119.739 84.4782L115.868 81.9541C116.423 82.0524 116.955 82.1071 117.445 82.1617C117.732 82.2164 118.027 82.2164 118.314 82.1617C118.706 82.1617 119.108 82.0633 119.467 81.9759C119.893 81.9036 120.314 81.8051 120.728 81.6809L121 81.1455L120.88 80.6974L116.673 80.3478L120.685 78.8071V78.359C120.239 78.1842 119.771 77.9766 119.336 77.8455C119.113 77.7543 118.87 77.7205 118.63 77.7471C118.317 77.7381 118.006 77.7939 117.716 77.911Z" fill="#F46A22"/>
<path d="M68.8887 40.7466C68.8887 40.7466 59.7993 0.250577 64.7571 -0.000747168C69.715 -0.252072 70.5956 14.5761 70.5956 14.5761C70.5956 14.5761 72.5527 3.2774 75.8579 4.15157C79.1632 5.02574 74.912 16.7069 74.912 16.7069C74.912 16.7069 80.5983 8.74097 83.1751 10.544C85.7519 12.3469 78.2825 30.7592 68.8887 40.7466Z" fill="#FF8200"/>
<path d="M32.7163 66.044C32.7163 66.044 2.42554 57.204 0.19668 62.7549C-2.03218 68.3059 15.4182 67.6285 15.4182 67.6285C15.4182 67.6285 2.84957 72.491 4.87185 74.895C6.89414 77.299 18.0602 72.043 18.0602 72.043C18.0602 72.043 7.04635 80.2275 11.6237 81.3311C16.201 82.4347 28.3456 75.5288 32.7163 66.044Z" fill="#FF8200"/>
<path d="M22.1898 14.2053C21.8032 14.6534 21.6061 15.2355 21.6406 15.8276C21.6751 16.4196 21.9386 16.9747 22.3746 17.3742L22.4942 17.4726C22.7162 17.6717 22.9764 17.8229 23.2587 17.9168C23.5411 18.0108 23.8397 18.0456 24.136 18.0189C24.899 19.5785 25.9657 20.9682 27.2731 22.1057C28.5804 23.2431 30.1017 24.1052 31.7467 24.6408C32.573 24.8702 32.834 23.5481 32.0185 23.3186C29.1242 22.3319 26.7359 20.2341 25.3754 17.4835C25.4688 17.4188 25.5529 17.3416 25.6255 17.254C26.0175 16.8084 26.2181 16.225 26.1835 15.6313C26.1489 15.0375 25.8818 14.4817 25.4407 14.0852L25.332 13.9977C24.8829 13.6178 24.305 13.4272 23.7193 13.4659C23.1336 13.5046 22.5855 13.7696 22.1898 14.2053Z" fill="#FF8200"/>
<path d="M27.7351 11.1566C27.5056 11.4104 27.3387 11.715 27.2481 12.0457C27.1574 12.3764 27.1454 12.7239 27.2132 13.0601C27.2809 13.3963 27.4265 13.7118 27.638 13.9809C27.8496 14.2501 28.1212 14.4655 28.4309 14.6095C29.236 17.5028 30.9669 20.0489 33.3562 21.8543C34.0085 22.4006 34.9001 21.3953 34.2369 20.8271C32.2218 19.3199 30.7061 17.2367 29.8879 14.8499C30.3459 14.7549 30.7592 14.5087 31.0621 14.1506C33.0083 12.0198 29.6595 9.00392 27.7351 11.1566Z" fill="#FF8200"/>
<path d="M33.9541 8.93785L33.8562 9.05805C33.4669 9.50487 33.2681 10.0876 33.3027 10.6805C33.3373 11.2734 33.6025 11.8289 34.0411 12.2269C34.1588 12.3301 34.2863 12.4216 34.4216 12.5001C34.3284 14.9161 34.8287 17.318 35.8785 19.4935C36.2156 20.2693 37.5094 19.8759 37.1397 19.0782C36.2117 17.1021 35.7538 14.9361 35.8024 12.7514C36.3298 12.6747 36.8142 12.4158 37.1724 12.0193L37.2593 11.8991C37.4542 11.6839 37.605 11.4321 37.7031 11.1583C37.8012 10.8845 37.8447 10.5939 37.8311 10.3032C37.8174 10.0125 37.747 9.72737 37.6237 9.46404C37.5004 9.2007 37.3267 8.96435 37.1126 8.76848C36.8984 8.5726 36.6479 8.42104 36.3755 8.32245C36.103 8.22386 35.8139 8.18016 35.5247 8.19386C35.2354 8.20756 34.9517 8.27838 34.6897 8.40229C34.4276 8.52619 34.1925 8.70075 33.9976 8.91599L33.9541 8.93785Z" fill="#FF8200"/>
<path d="M102.647 46.1008C102.647 46.1008 91.4702 53.881 73.2153 36.6598C54.9604 19.4386 46.3168 7.03625 29.5405 20.6733C12.7642 34.3104 17.733 64.6551 42.8593 84.7939C67.9856 104.933 105.333 87.8753 102.647 46.1008Z" fill="#FFB839"/>
<path d="M33.2925 45.206C33.2925 45.206 32.7488 58.1219 36.5542 58.1874C40.3596 58.253 42.708 44.9219 42.708 44.9219C42.708 44.9219 38.1525 39.9609 33.2925 45.206Z" fill="#F46A22"/>
<path d="M35.879 47.5658C35.7536 47.6774 35.6774 47.8345 35.6672 48.0025C35.657 48.1706 35.7136 48.3358 35.8247 48.4619C35.9357 48.5879 36.092 48.6645 36.2592 48.6747C36.4264 48.685 36.5908 48.6281 36.7162 48.5165C37.3251 47.9811 36.477 47.0523 35.879 47.5658Z" fill="black"/>
<path d="M38.8154 46.6801C38.2066 47.2155 39.0437 48.1334 39.6417 47.598C40.2397 47.0625 39.3917 46.1337 38.8154 46.6801Z" fill="black"/>
<path d="M48.927 72.5888C48.5139 70.8076 47.6006 69.256 47.0461 67.5295C46.9374 67.158 47.2635 66.6553 47.6984 66.8739C48.9923 67.5295 53.2543 70.2613 52.6345 66.6225C52.3192 64.7758 51.4277 63.1586 51.0472 61.3229C51.0372 61.2347 51.0501 61.1455 51.0847 61.0639C51.1192 60.9823 51.1742 60.9111 51.2443 60.8572C51.3143 60.8033 51.3971 60.7685 51.4845 60.7563C51.5719 60.7441 51.661 60.7548 51.743 60.7874C52.8846 61.2245 59.0602 64.0656 57.2336 59.8914C56.603 58.4381 55.6462 57.2033 54.9504 55.7828C54.7329 55.3566 55.2113 55.007 55.581 55.1162C57.1901 55.5861 60.5389 57.2361 61.8436 55.3566C62.1494 54.762 62.3198 54.1063 62.3423 53.4373C62.3649 52.7683 62.2391 52.1026 61.974 51.4884C58.9478 51.1575 55.888 51.622 53.094 52.8364C50.3 54.0508 47.8676 55.9735 46.0349 58.4162C42.5449 62.9947 42.6862 69.1576 44.8064 74.4136C47.0135 75.397 49.5794 75.6921 48.927 72.5888Z" fill="#FFD93B"/>
<path d="M54.9719 79.9327C54.7436 78.4684 53.8846 77.0916 54.0151 75.5618C54.0239 75.4869 54.0493 75.4149 54.0895 75.3512C54.1297 75.2875 54.1837 75.2338 54.2474 75.1939C54.3111 75.154 54.3829 75.1291 54.4575 75.1209C54.5321 75.1127 54.6076 75.1214 54.6783 75.1466C56.8528 75.6929 62.0608 77.5833 61.017 73.1797C60.5421 71.6021 59.9459 70.0641 59.2339 68.5793C59.2017 68.4879 59.1959 68.3891 59.2172 68.2945C59.2384 68.1999 59.286 68.1132 59.3542 68.0446C59.4225 67.976 59.5087 67.9283 59.6029 67.9069C59.697 67.8855 59.7953 67.8913 59.8863 67.9237C60.8232 68.4183 61.8213 68.7858 62.8545 69.0164C65.029 69.2678 64.8441 67.432 64.2353 66.0552C63.4761 64.7255 62.8775 63.3095 62.4522 61.8373C62.4431 61.7505 62.4562 61.6628 62.4903 61.5825C62.5243 61.5022 62.5781 61.4319 62.6467 61.3783C62.7152 61.3248 62.7962 61.2896 62.882 61.2762C62.9679 61.2629 63.0557 61.2717 63.1371 61.3019C63.92 61.5969 64.6593 61.9684 65.4639 62.187C67.3774 62.7005 68.3777 61.0942 67.3122 59.5644C66.5953 58.7124 65.9889 57.7725 65.5073 56.7671C65.3769 56.3846 65.7357 55.9038 66.1597 56.1005C68.0515 57.0512 71.509 58.8323 73.5095 57.5866C71.6559 55.8422 69.5658 54.3707 67.3013 53.2158C65.9893 52.507 64.578 52.0022 63.1154 51.7188C63.3031 52.5092 63.3509 53.3266 63.2567 54.1336C62.7675 57.9144 59.1578 57.237 56.3636 56.4502C57.5596 58.3625 59.3209 60.7009 57.7444 62.6131C56.3962 64.274 53.9608 63.0065 52.2212 62.187C52.9714 64.3724 54.5044 67.0823 52.83 69.082C51.7428 70.3495 49.8618 69.3661 48.4267 68.5247C49.4161 70.8085 50.9599 73.6714 49.1877 75.5946C48.2744 76.578 46.8828 76.5234 45.502 76.0426C46.1948 77.4396 47.0448 78.7522 48.0352 79.9545C50.2424 81.233 55.5047 83.2982 54.9719 79.9327Z" fill="#FFD93B"/>
<path d="M58.8526 86.9794C59.5638 87.244 60.2899 87.4666 61.0271 87.6459C61.459 87.3841 61.7971 86.9912 61.9925 86.5237C62.1879 86.0563 62.2306 85.5386 62.1143 85.0453C61.9914 84.3795 61.802 83.7278 61.5489 83.1003C61.1793 82.1824 60.7226 81.2645 60.4617 80.3138C60.4244 80.2239 60.4139 80.125 60.4315 80.0291C60.4491 79.9333 60.494 79.8446 60.5608 79.774C60.6277 79.7034 60.7135 79.6538 60.8078 79.6313C60.9022 79.6088 61.001 79.6143 61.0923 79.6473C62.4187 80.2264 68.0833 82.8271 67.2244 79.2648C66.8438 77.7787 66.0284 76.4565 65.7131 74.9814C65.6152 74.5771 66.0501 74.3476 66.3763 74.4241C67.2244 74.6973 67.9854 75.0907 68.8226 75.3966C69.4409 75.6603 70.0863 75.8545 70.7471 75.9758C71.7256 76.2489 72.2692 75.6479 72.3888 74.1072C71.6604 72.5228 70.2143 71.2771 69.9316 69.5287C69.8664 69.1572 70.2795 68.8075 70.5948 68.9714C71.8343 69.5943 73.3782 70.6542 74.7916 70.6433C77.5967 70.6433 74.0414 64.994 73.5957 63.9777C73.4326 63.5734 73.8457 63.1036 74.248 63.3112C75.8354 64.087 77.1944 65.136 78.8906 65.2781C77.7679 62.6299 76.1557 60.2197 74.1393 58.1754C72.117 59.6397 69.6272 58.8529 67.344 57.793C68.4312 59.2572 69.8773 61.0711 68.8552 62.437C67.594 64.1198 65.463 63.3221 63.7452 62.6228C64.5389 64.6771 66.4959 66.9062 65.55 69.0261C64.7563 70.8072 62.3861 70.1188 60.7009 69.4085C61.6142 71.3973 62.9297 73.9761 61.7881 75.79C60.2768 78.183 57.3195 77.0138 55.0472 76.3254C55.3625 78.3251 57.2217 81.4612 54.5797 82.4774C53.2333 82.9102 51.7808 82.8717 50.459 82.3681C51.874 83.5522 53.4571 84.5172 55.1559 85.231C56.3413 85.9089 57.5773 86.4934 58.8526 86.9794Z" fill="#FFD93B"/>
<path d="M79.2283 66.2953C77.805 66.2655 76.4215 65.8172 75.249 65.0059C76.3362 67.0055 77.8475 69.5734 76.1405 71.289C75.0532 72.3817 72.9549 71.3764 71.4327 70.5787C72.52 72.4145 74.7923 74.9496 72.9549 76.4794C71.1174 78.0092 68.8559 76.534 66.9315 75.7254C67.66 77.6595 69.106 79.8777 67.5512 81.5933C66.3226 83.0466 63.6045 81.9539 61.8105 81.1125C62.6369 83.0684 63.6154 85.0353 62.8978 87.1661C62.7956 87.4623 62.6449 87.7393 62.452 87.9857C66.203 88.6959 70.302 88.5648 73.5202 86.7181C79.4566 83.2979 81.729 77.1678 80.4569 70.4804C80.1818 69.0645 79.7853 67.6752 79.2718 66.328C79.2718 66.328 79.2392 66.3062 79.2283 66.2953Z" fill="#FFD93B"/>
<path d="M25.093 41.065C22.6576 42.3872 21.9618 47.2388 23.9188 49.173C24.0006 49.3223 24.1339 49.4365 24.2935 49.494C24.4532 49.5516 24.6283 49.5485 24.7859 49.4855C24.9435 49.4224 25.0727 49.3036 25.1493 49.1515C25.2259 48.9994 25.2445 48.8244 25.2018 48.6594C25.2048 48.6076 25.1955 48.5558 25.1747 48.5083C25.1539 48.4608 25.1222 48.419 25.0822 48.3862C24.736 47.6406 24.6369 46.8032 24.7994 45.9968C24.9618 45.1904 25.3772 44.4576 25.9846 43.9061C27.6046 42.4309 29.2463 44.0481 30.0074 45.5561C30.1029 45.6969 30.2464 45.7979 30.4108 45.8399C30.5752 45.882 30.7492 45.8622 30.9001 45.7843C31.051 45.7065 31.1684 45.5759 31.2303 45.4172C31.2922 45.2584 31.2942 45.0824 31.236 44.9223C30.1379 42.7696 27.9525 39.5461 25.093 41.065ZM25.4083 42.6822L25.2126 42.8352C25.4291 42.5795 25.6863 42.3617 25.9737 42.1905C26.2493 42.0287 26.5756 41.978 26.887 42.0485C26.3535 42.1471 25.8485 42.3636 25.4083 42.6822Z" fill="black"/>
<path d="M49.7309 26.1605C47.2955 27.4826 46.5779 32.3124 48.5676 34.2684C48.6353 34.4379 48.7673 34.5735 48.9345 34.6452C49.1017 34.7169 49.2904 34.719 49.4591 34.6508C49.6278 34.5827 49.7627 34.4501 49.834 34.282C49.9054 34.114 49.9074 33.9244 49.8396 33.7548C49.8365 33.6557 49.8023 33.56 49.7418 33.4816C49.3906 32.7417 49.2898 31.9066 49.4547 31.1037C49.6196 30.3008 50.0411 29.5741 50.6551 29.0343C52.2642 27.5482 53.9168 29.1873 54.667 30.6843C54.7628 30.8307 54.909 30.9364 55.0775 30.981C55.2461 31.0257 55.4251 31.0062 55.5802 30.9262C55.7353 30.8462 55.8556 30.7114 55.9178 30.5478C55.98 30.3841 55.9799 30.2031 55.9174 30.0396C54.754 27.8432 52.5686 24.6307 49.7309 26.1605ZM50.0136 27.7449L49.8288 27.8979C50.0431 27.6299 50.3048 27.4039 50.6007 27.2313C50.8827 27.0886 51.2035 27.0425 51.514 27.1002C50.9754 27.2101 50.4648 27.4295 50.0136 27.7449Z" fill="black"/>
<path d="M60.6142 30.8793C60.0464 30.5262 59.367 30.4014 58.7116 30.5296C58.0528 30.687 57.4711 31.0742 57.0698 31.6223C56.7451 32.0207 56.5417 32.5048 56.4838 33.0164C56.426 33.5281 56.5162 34.0457 56.7436 34.5071C57.0671 35.1181 57.6177 35.5758 58.2756 35.7805C58.9334 35.9852 59.6451 35.9203 60.2554 35.5998C60.8275 35.3354 61.2924 34.8824 61.5732 34.316C61.854 33.7496 61.9338 33.1038 61.7993 32.4856C61.6093 31.8244 61.1885 31.2541 60.6142 30.8793Z" fill="#FF8200"/>
<path d="M25.0606 52.6898L24.9301 52.7554C24.3251 53.0804 23.8717 53.6319 23.6682 54.2905C23.4647 54.949 23.5275 55.6616 23.8429 56.2739C24.1766 56.8775 24.7293 57.3281 25.3858 57.5317C26.0422 57.7353 26.7515 57.6762 27.3656 57.3667L27.4961 57.3011C27.8009 57.1432 28.0718 56.9266 28.2933 56.6635C28.5149 56.4004 28.6827 56.0961 28.7872 55.7678C28.8916 55.4396 28.9308 55.0939 28.9023 54.7504C28.8739 54.407 28.7784 54.0725 28.6214 53.7662C28.4643 53.4598 28.2487 53.1875 27.987 52.9649C27.7252 52.7422 27.4224 52.5736 27.0958 52.4686C26.4362 52.2565 25.7197 52.3164 25.1041 52.6352L25.0606 52.6898Z" fill="#FF8200"/>
</g>
<defs>
<clipPath id="clip0_2582_69">
<rect width="121" height="99" fill="white"/>
</clipPath>
</defs>
</svg>
