<svg width="28" height="30" viewBox="0 0 28 30" fill="none" xmlns="http://www.w3.org/2000/svg">
<path d="M12.6877 14.3359L0.112793 27.5106C0.233915 27.942 0.438834 28.3452 0.715845 28.6974C0.992856 29.0495 1.33653 29.3436 1.72723 29.5629C2.11794 29.7822 2.54802 29.9223 2.9929 29.9753C3.43779 30.0284 3.88876 29.9932 4.32006 29.8719C4.5963 29.7951 4.86102 29.6816 5.10716 29.5346L19.2563 21.4761L12.6877 14.3359Z" fill="#EA4335"/>
<path d="M25.3657 12.0963L19.2469 8.5918L12.3597 14.6356L19.275 21.4572L25.347 17.9902C26.1268 17.5796 26.7118 16.8764 26.9736 16.0349C27.2354 15.1933 27.1525 14.2823 26.7432 13.5018C26.4368 12.9048 25.9565 12.4147 25.3657 12.0963Z" fill="#FBBC04"/>
<path d="M0.11284 2.51172C0.0335481 2.79206 -0.00433627 3.08249 0.000394007 3.37379V26.6496C0.000216784 26.9407 0.0380197 27.2305 0.11284 27.5117L13.1188 14.6744L0.11284 2.51172Z" fill="#4285F4"/>
<path d="M12.7815 15.0113L19.2844 8.5926L5.15402 0.477909C4.62009 0.172171 4.01699 0.00769519 3.40177 2.82164e-05C2.65736 -0.00300286 1.93252 0.238247 1.33841 0.686788C0.74431 1.13533 0.313757 1.76638 0.112793 2.48315L12.7815 15.0113Z" fill="#34A853"/>
</svg>
