<svg width="104" height="37" viewBox="0 0 104 37" fill="none" xmlns="http://www.w3.org/2000/svg">
<path d="M95.732 9.37843H90.7072V6.02177H96.8277L101.857 0.99292L101.897 1.03381V0.976562H84.8198V23.3897C84.8198 23.3897 93.2134 23.3897 96.01 23.3897C100.495 23.3897 103.86 21.141 103.86 16.382C103.86 11.6189 100.499 9.37843 95.732 9.37843ZM95.1718 18.6307H90.7072V14.1538H95.1718C96.5578 14.1538 97.9643 14.7016 97.9643 16.3861C97.9643 18.0706 96.5619 18.6307 95.1718 18.6307Z" fill="#3E3E59"/>
<path d="M59.3161 0.980469H46.1879L38.5833 8.58508V23.3936H44.4667V6.02158H53.4327V23.3936H53.445L59.3161 17.5225V0.980469Z" fill="#3E3E59"/>
<path d="M73.7153 18.6182C69.7904 18.6182 67.5785 15.7399 67.5785 12.1788C67.5785 9.32094 69.1853 5.73533 73.6008 5.73533C76.3565 5.73533 78.135 7.41979 78.7646 8.20478L82.342 4.62735C80.1833 2.0516 76.9411 0.412109 73.3187 0.412109C66.8221 0.412109 61.691 5.22427 61.691 12.1788C61.691 18.6795 66.818 23.9455 73.3187 23.9455C77.211 23.9455 80.6576 22.0566 82.8 19.1456L79.198 15.5436C78.0655 17.3303 76.2052 18.6182 73.7153 18.6182Z" fill="#3E3E59"/>
<path d="M38.5834 31.456C38.5834 29.6857 39.9203 28.2588 41.8051 28.2588C42.9458 28.2588 43.9475 28.8435 44.4627 29.747L44.0456 29.9841C43.6368 29.2237 42.7782 28.7085 41.8051 28.7085C40.1779 28.7085 39.0536 29.931 39.0536 31.4519C39.0536 32.9728 40.1779 34.1953 41.8051 34.1953C42.7864 34.1953 43.6572 33.672 44.062 32.8951L44.479 33.1323C43.9761 34.044 42.9663 34.645 41.8051 34.645C39.9203 34.6532 38.5834 33.2263 38.5834 31.456Z" fill="#3E3E59"/>
<path d="M49.7447 28.8024H47.7985V34.5549H47.3202V28.8024H45.3741V28.3608H49.7488V28.8024H49.7447Z" fill="#3E3E59"/>
<path d="M55.1985 30.2785C55.1985 31.3661 54.3849 32.1919 53.2687 32.1919H51.6292V34.5551H51.159V28.3569H53.2646C54.3849 28.3569 55.1985 29.1828 55.1985 30.2785ZM54.7283 30.2785C54.7283 29.4199 54.1191 28.7985 53.2687 28.7985H51.6292V31.7463H53.2687C54.1191 31.7504 54.7283 31.1289 54.7283 30.2785Z" fill="#3E3E59"/>
<path d="M59.7494 32.981H56.6422L56.0412 34.5551H55.5464L57.9546 28.3569H58.4493L60.8492 34.5551H60.3545L59.7494 32.981ZM59.5818 32.5354L58.1999 28.9334L56.818 32.5354H59.5818Z" fill="#3E3E59"/>
<path d="M65.7508 34.5549L63.9641 31.7911L62.1774 34.5549H61.6296L63.6902 31.37L61.7441 28.3608H62.2837L63.9641 30.9529L65.6363 28.3608H66.176L64.2299 31.37L66.2946 34.5549H65.7508Z" fill="#3E3E59"/>
<path d="M67.088 31.456C67.088 29.6857 68.4944 28.2588 70.2852 28.2588C72.0719 28.2588 73.4824 29.6857 73.4824 31.456C73.4824 33.2263 72.0759 34.6532 70.2852 34.6532C68.4944 34.6532 67.088 33.2263 67.088 31.456ZM73.0081 31.456C73.0081 29.9351 71.8143 28.7126 70.2811 28.7126C68.7479 28.7126 67.5541 29.9351 67.5541 31.456C67.5541 32.9769 68.7479 34.1994 70.2811 34.1994C71.8143 34.1994 73.0081 32.981 73.0081 31.456Z" fill="#3E3E59"/>
<path d="M79.4718 32.8664C79.4718 33.8067 78.7196 34.559 77.7792 34.559H75.1053V28.3608H77.5748C78.4783 28.3608 79.202 29.0968 79.202 29.9881C79.202 30.5891 78.8831 31.0838 78.4047 31.3414C79.0262 31.5826 79.4718 32.155 79.4718 32.8664ZM75.5755 28.8024V31.1737H77.5748C78.2126 31.1737 78.7359 30.6422 78.7359 29.9881C78.7359 29.3339 78.2126 28.8024 77.5748 28.8024H75.5755ZM79.0017 32.8664C79.0017 32.1754 78.4538 31.6194 77.7792 31.6194H75.5755V34.1174H77.7792C78.4538 34.1134 79.0017 33.5532 79.0017 32.8664Z" fill="#3E3E59"/>
<path d="M84.6316 32.981H81.5243L80.9233 34.5551H80.4286L82.8368 28.3569H83.3315L85.7314 34.5551H85.2367L84.6316 32.981ZM84.464 32.5354L83.0821 28.9334L81.7001 32.5354H84.464Z" fill="#3E3E59"/>
<path d="M91.615 28.3569V34.5551H91.1448V31.5909H87.5428V34.5551H87.0726V28.3569H87.5428V31.1453H91.1448V28.3569H91.615Z" fill="#3E3E59"/>
<path d="M97.67 29.2278L94.0067 34.5551H93.5978V28.3569H94.068V33.6842L97.7231 28.3569H98.1402V34.5551H97.67V29.2278Z" fill="#3E3E59"/>
<path d="M103.692 34.1135V34.5551H100.123V28.3569H103.647V28.7985H100.593V31.2066H103.427V31.6482H100.593V34.1095H103.692V34.1135Z" fill="#3E3E59"/>
<path d="M30.8804 0.968262H22.8874H7.96439L0 8.93266V8.96127H22.8874V20.3069L16.8119 25.4502L16.8364 36.9879L30.8682 24.3626L30.7332 24.2195H30.8804V8.96127V0.968262Z" fill="#CC5624"/>
<path d="M18.4964 19.8571H18.5536L19.6166 18.9535V11.8682H7.26526H0V19.8571V24.2195H0.298459L0.151272 24.3749L14.2361 37.0002L14.2648 25.4624L7.59643 19.8571H15.0784H18.4964Z" fill="#3E3E59"/>
</svg>
