<svg width="77" height="28" viewBox="0 0 77 28" fill="none" xmlns="http://www.w3.org/2000/svg">
<path d="M70.6454 7.11492H66.9374V4.63788H71.454L75.165 0.926866L75.1952 0.957039V0.914795H62.5928V17.4545C62.5928 17.4545 68.7869 17.4545 70.8506 17.4545C74.1603 17.4545 76.6434 15.7951 76.6434 12.2832C76.6434 8.76829 74.1633 7.11492 70.6454 7.11492ZM70.2321 13.9426H66.9374V10.6389H70.2321C71.2548 10.6389 72.2927 11.0432 72.2927 12.2862C72.2927 13.5293 71.2579 13.9426 70.2321 13.9426Z" fill="white"/>
<path d="M43.7723 0.917725H34.0844L28.4727 6.52952V17.4574H32.8142V4.63779H39.4307V17.4574H39.4398L43.7723 13.1249V0.917725Z" fill="white"/>
<path d="M54.3982 13.9349C51.5018 13.9349 49.8695 11.8108 49.8695 9.18294C49.8695 7.074 51.0552 4.428 54.3137 4.428C56.3472 4.428 57.6596 5.67105 58.1243 6.25033L60.7642 3.61038C59.1712 1.70961 56.7787 0.499756 54.1055 0.499756C49.3114 0.499756 45.5249 4.05087 45.5249 9.18294C45.5249 13.9801 49.3083 17.8661 54.1055 17.8661C56.9778 17.8661 59.5212 16.4722 61.1021 14.3241L58.4441 11.666C57.6084 12.9845 56.2356 13.9349 54.3982 13.9349Z" fill="white"/>
<path d="M28.4727 23.4082C28.4727 22.1018 29.4592 21.0488 30.8501 21.0488C31.6919 21.0488 32.4311 21.4803 32.8112 22.1471L32.5035 22.322C32.2018 21.7609 31.5682 21.3807 30.8501 21.3807C29.6493 21.3807 28.8196 22.2828 28.8196 23.4052C28.8196 24.5275 29.6493 25.4296 30.8501 25.4296C31.5742 25.4296 32.2169 25.0435 32.5156 24.4702L32.8233 24.6452C32.4522 25.318 31.707 25.7615 30.8501 25.7615C29.4592 25.7676 28.4727 24.7146 28.4727 23.4082Z" fill="white"/>
<path d="M35.2729 21.4496V25.6947H34.9199V21.4496H33.4838V21.1238H36.7121V21.4496H35.2729Z" fill="white"/>
<path d="M40.7337 22.5389C40.7337 23.3415 40.1333 23.9509 39.3096 23.9509H38.0998V25.6948H37.7528V21.1209H39.3066C40.1333 21.1209 40.7337 21.7303 40.7337 22.5389ZM40.3867 22.5389C40.3867 21.9053 39.9372 21.4467 39.3096 21.4467H38.0998V23.6221H39.3096C39.9372 23.6251 40.3867 23.1665 40.3867 22.5389Z" fill="white"/>
<path d="M44.092 24.5332H41.799L41.3555 25.6948H40.9905L42.7675 21.1209H43.1326L44.9036 25.6948H44.5386L44.092 24.5332ZM43.9683 24.2044L42.9486 21.5463L41.9288 24.2044H43.9683Z" fill="white"/>
<path d="M48.5207 25.6947L47.2022 23.6551L45.8838 25.6947H45.4795L47.0001 23.3444L45.564 21.1238H45.9622L47.2022 23.0366L48.4362 21.1238H48.8345L47.3984 23.3444L48.922 25.6947H48.5207Z" fill="white"/>
<path d="M49.5075 23.4082C49.5075 22.1018 50.5454 21.0488 51.8668 21.0488C53.1853 21.0488 54.2262 22.1018 54.2262 23.4082C54.2262 24.7146 53.1883 25.7676 51.8668 25.7676C50.5454 25.7676 49.5075 24.7146 49.5075 23.4082ZM53.8762 23.4082C53.8762 22.2858 52.9952 21.3837 51.8638 21.3837C50.7324 21.3837 49.8514 22.2858 49.8514 23.4082C49.8514 24.5306 50.7324 25.4327 51.8638 25.4327C52.9952 25.4327 53.8762 24.5336 53.8762 23.4082Z" fill="white"/>
<path d="M58.6461 24.4486C58.6461 25.1425 58.091 25.6977 57.397 25.6977H55.4239V21.1238H57.2462C57.913 21.1238 58.447 21.6669 58.447 22.3246C58.447 22.7681 58.2117 23.1332 57.8587 23.3232C58.3173 23.5012 58.6461 23.9236 58.6461 24.4486ZM55.7708 21.4496V23.1995H57.2462C57.7169 23.1995 58.103 22.8073 58.103 22.3246C58.103 21.8418 57.7169 21.4496 57.2462 21.4496H55.7708ZM58.2992 24.4486C58.2992 23.9387 57.8949 23.5284 57.397 23.5284H55.7708V25.3718H57.397C57.8949 25.3688 58.2992 24.9555 58.2992 24.4486Z" fill="white"/>
<path d="M62.4538 24.5332H60.1608L59.7172 25.6948H59.3522L61.1292 21.1209H61.4943L63.2653 25.6948H62.9003L62.4538 24.5332ZM62.33 24.2044L61.3103 21.5463L60.2905 24.2044H62.33Z" fill="white"/>
<path d="M67.6071 21.1209V25.6948H67.2601V23.5074H64.6021V25.6948H64.2551V21.1209H64.6021V23.1786H67.2601V21.1209H67.6071Z" fill="white"/>
<path d="M72.0754 21.7635L69.3721 25.6948H69.0703V21.1209H69.4173V25.0522L72.1146 21.1209H72.4223V25.6948H72.0754V21.7635Z" fill="white"/>
<path d="M76.5195 25.6948H73.8856V21.1209H76.4863V21.4467H74.2326V23.2238H76.3234V23.5497H74.2326V25.3659H76.5195V25.6948Z" fill="white"/>
<path d="M28.4727 23.4082C28.4727 22.1018 29.4592 21.0488 30.8501 21.0488C31.6919 21.0488 32.4311 21.4803 32.8112 22.1471L32.5035 22.322C32.2018 21.7609 31.5682 21.3807 30.8501 21.3807C29.6493 21.3807 28.8196 22.2828 28.8196 23.4052C28.8196 24.5275 29.6493 25.4296 30.8501 25.4296C31.5742 25.4296 32.2169 25.0435 32.5156 24.4702L32.8233 24.6452C32.4522 25.318 31.707 25.7615 30.8501 25.7615C29.4592 25.7676 28.4727 24.7146 28.4727 23.4082Z" stroke="white" stroke-width="0.5"/>
<path d="M35.2729 21.4496V25.6947H34.9199V21.4496H33.4838V21.1238H36.7121V21.4496H35.2729Z" stroke="white" stroke-width="0.5"/>
<path d="M40.7337 22.5389C40.7337 23.3415 40.1333 23.9509 39.3096 23.9509H38.0998V25.6948H37.7528V21.1209H39.3066C40.1333 21.1209 40.7337 21.7303 40.7337 22.5389ZM40.3867 22.5389C40.3867 21.9053 39.9372 21.4467 39.3096 21.4467H38.0998V23.6221H39.3096C39.9372 23.6251 40.3867 23.1665 40.3867 22.5389Z" stroke="white" stroke-width="0.5"/>
<path d="M44.092 24.5332H41.799L41.3555 25.6948H40.9905L42.7675 21.1209H43.1326L44.9036 25.6948H44.5386L44.092 24.5332ZM43.9683 24.2044L42.9486 21.5463L41.9288 24.2044H43.9683Z" stroke="white" stroke-width="0.5"/>
<path d="M48.5207 25.6947L47.2022 23.6551L45.8838 25.6947H45.4795L47.0001 23.3444L45.564 21.1238H45.9622L47.2022 23.0366L48.4362 21.1238H48.8345L47.3984 23.3444L48.922 25.6947H48.5207Z" stroke="white" stroke-width="0.5"/>
<path d="M49.5075 23.4082C49.5075 22.1018 50.5454 21.0488 51.8668 21.0488C53.1853 21.0488 54.2262 22.1018 54.2262 23.4082C54.2262 24.7146 53.1883 25.7676 51.8668 25.7676C50.5454 25.7676 49.5075 24.7146 49.5075 23.4082ZM53.8762 23.4082C53.8762 22.2858 52.9952 21.3837 51.8638 21.3837C50.7324 21.3837 49.8514 22.2858 49.8514 23.4082C49.8514 24.5306 50.7324 25.4327 51.8638 25.4327C52.9952 25.4327 53.8762 24.5336 53.8762 23.4082Z" stroke="white" stroke-width="0.5"/>
<path d="M58.6461 24.4486C58.6461 25.1425 58.091 25.6977 57.397 25.6977H55.4239V21.1238H57.2462C57.913 21.1238 58.447 21.6669 58.447 22.3246C58.447 22.7681 58.2117 23.1332 57.8587 23.3232C58.3173 23.5012 58.6461 23.9236 58.6461 24.4486ZM55.7708 21.4496V23.1995H57.2462C57.7169 23.1995 58.103 22.8073 58.103 22.3246C58.103 21.8418 57.7169 21.4496 57.2462 21.4496H55.7708ZM58.2992 24.4486C58.2992 23.9387 57.8949 23.5284 57.397 23.5284H55.7708V25.3718H57.397C57.8949 25.3688 58.2992 24.9555 58.2992 24.4486Z" stroke="white" stroke-width="0.5"/>
<path d="M62.4538 24.5332H60.1608L59.7172 25.6948H59.3522L61.1292 21.1209H61.4943L63.2653 25.6948H62.9003L62.4538 24.5332ZM62.33 24.2044L61.3103 21.5463L60.2905 24.2044H62.33Z" stroke="white" stroke-width="0.5"/>
<path d="M67.6071 21.1209V25.6948H67.2601V23.5074H64.6021V25.6948H64.2551V21.1209H64.6021V23.1786H67.2601V21.1209H67.6071Z" stroke="white" stroke-width="0.5"/>
<path d="M72.0754 21.7635L69.3721 25.6948H69.0703V21.1209H69.4173V25.0522L72.1146 21.1209H72.4223V25.6948H72.0754V21.7635Z" stroke="white" stroke-width="0.5"/>
<path d="M76.5195 25.6948H73.8856V21.1209H76.4863V21.4467H74.2326V23.2238H76.3234V23.5497H74.2326V25.3659H76.5195V25.6948Z" stroke="white" stroke-width="0.5"/>
<path d="M22.7881 0.90918H16.8897H5.87729L0 6.78648V6.80759H16.8897V15.18L12.4063 18.9755L12.4244 27.4898L22.779 18.173L22.6795 18.0674H22.7881V6.80759V0.90918Z" fill="#E9561A"/>
<path d="M13.6493 14.8497H13.6916L14.476 14.183V8.95435H5.36137H0V14.8497V18.069H0.220246L0.111631 18.1836L10.5055 27.5004L10.5266 18.9862L5.60576 14.8497H11.127H13.6493Z" fill="white"/>
</svg>
