<svg version="1.1" xmlns="http://www.w3.org/2000/svg" xmlns:xlink="http://www.w3.org/1999/xlink">

    <symbol viewBox="0 0 14 14" id="form-input-clear">
        <path d="M1.74621 13.6534L0.692383 12.5995L6.29238 6.99953L0.692383 1.39953L1.74621 0.345703L7.34621 5.9457L12.9462 0.345703L14 1.39953L8.40003 6.99953L14 12.5995L12.9462 13.6534L7.34621 8.05335L1.74621 13.6534Z" />
    </symbol>

    <symbol viewBox="0 0 24 24" id="auth-close">
        <path d="M6.40002 18.6534L5.34619 17.5995L10.9462 11.9995L5.34619 6.39953L6.40002 5.3457L12 10.9457L17.6 5.3457L18.6538 6.39953L13.0538 11.9995L18.6538 17.5995L17.6 18.6534L12 13.0534L6.40002 18.6534Z" />
    </symbol>

    <symbol viewBox="0 0 16 16" id="auth-submit">
        <path fill-rule="evenodd" clip-rule="evenodd" d="M12.5 8.4714C12.7734 8.21105 12.7734 7.78895 12.5 7.5286L6.90005 2.19526C6.62668 1.93491 6.18346 1.93491 5.9101 2.19526C5.63673 2.45561 5.63673 2.87772 5.9101 3.13807L11.0151 8L5.9101 12.8619C5.63673 13.1223 5.63673 13.5444 5.9101 13.8047C6.18346 14.0651 6.62668 14.0651 6.90005 13.8047L12.5 8.4714Z" />
    </symbol>

    <symbol viewBox="0 0 12 13" id="auth-back">
        <path fill-rule="evenodd" clip-rule="evenodd" d="M3.15377 6.85355C2.94874 6.65829 2.94874 6.34171 3.15377 6.14645L7.35377 2.14645C7.55879 1.95118 7.89121 1.95118 8.09623 2.14645C8.30126 2.34171 8.30126 2.65829 8.09623 2.85355L4.26746 6.5L8.09623 10.1464C8.30126 10.3417 8.30126 10.6583 8.09623 10.8536C7.89121 11.0488 7.55879 11.0488 7.35377 10.8536L3.15377 6.85355Z" />
    </symbol>

    <symbol viewBox="0 0 16 17" id="icon-user">
        <path d="M13.3334 14.5V13.1667C13.3334 12.4594 13.0524 11.7811 12.5523 11.281C12.0522 10.781 11.3739 10.5 10.6667 10.5H5.33335C4.62611 10.5 3.94783 10.781 3.44774 11.281C2.94764 11.7811 2.66669 12.4594 2.66669 13.1667V14.5" stroke-width="1.33333" stroke-linecap="round" stroke-linejoin="round" />
        <path d="M7.99998 7.83333C9.47274 7.83333 10.6666 6.63943 10.6666 5.16667C10.6666 3.69391 9.47274 2.5 7.99998 2.5C6.52722 2.5 5.33331 3.69391 5.33331 5.16667C5.33331 6.63943 6.52722 7.83333 7.99998 7.83333Z" stroke-width="1.33333" stroke-linecap="round" stroke-linejoin="round" />
    </symbol>

    <symbol viewBox="0 0 18 19" id="icon-user-mobile">
        <path d="M4.51731 13.4692C5.15481 12.9962 5.84928 12.6226 6.60071 12.3486C7.35215 12.0745 8.15191 11.9375 8.99998 11.9375C9.84806 11.9375 10.6478 12.0745 11.3993 12.3486C12.1507 12.6226 12.8452 12.9962 13.4827 13.4692C13.949 12.9567 14.3185 12.3635 14.5911 11.6894C14.8637 11.0154 15 10.2856 15 9.49998C15 7.83748 14.4156 6.42186 13.2469 5.25311C12.0781 4.08436 10.6625 3.49998 8.99998 3.49998C7.33748 3.49998 5.92186 4.08436 4.75311 5.25311C3.58436 6.42186 2.99998 7.83748 2.99998 9.49998C2.99998 10.2856 3.13628 11.0154 3.40888 11.6894C3.68148 12.3635 4.05096 12.9567 4.51731 13.4692ZM9.00021 10.0625C8.31544 10.0625 7.73797 9.82745 7.26778 9.35741C6.79759 8.88736 6.5625 8.30996 6.5625 7.62521C6.5625 6.94044 6.79752 6.36297 7.26756 5.89278C7.73761 5.4226 8.31501 5.1875 8.99976 5.1875C9.68452 5.1875 10.262 5.42252 10.7322 5.89256C11.2024 6.36261 11.4375 6.94001 11.4375 7.62476C11.4375 8.30952 11.2024 8.88699 10.7324 9.35718C10.2624 9.82737 9.68496 10.0625 9.00021 10.0625ZM8.99998 16.625C8.01056 16.625 7.08244 16.4389 6.21563 16.0668C5.3488 15.6947 4.59471 15.1879 3.95336 14.5466C3.31203 13.9053 2.8053 13.1512 2.43319 12.2843C2.06106 11.4175 1.875 10.4894 1.875 9.49998C1.875 8.51056 2.06106 7.58244 2.43319 6.71563C2.8053 5.8488 3.31203 5.09471 3.95336 4.45336C4.59471 3.81203 5.3488 3.3053 6.21563 2.93319C7.08244 2.56106 8.01056 2.375 8.99998 2.375C9.98941 2.375 10.9175 2.56106 11.7843 2.93319C12.6512 3.3053 13.4053 3.81203 14.0466 4.45336C14.6879 5.09471 15.1947 5.8488 15.5668 6.71563C15.9389 7.58244 16.125 8.51056 16.125 9.49998C16.125 10.4894 15.9389 11.4175 15.5668 12.2843C15.1947 13.1512 14.6879 13.9053 14.0466 14.5466C13.4053 15.1879 12.6512 15.6947 11.7843 16.0668C10.9175 16.4389 9.98941 16.625 8.99998 16.625ZM8.99998 15.5C9.67691 15.5 10.3295 15.3911 10.9579 15.1733C11.5863 14.9555 12.1442 14.6509 12.6317 14.2596C12.1442 13.8827 11.5935 13.5889 10.9796 13.3783C10.3656 13.1678 9.70576 13.0625 8.99998 13.0625C8.29421 13.0625 7.63314 13.1666 7.01679 13.3747C6.40044 13.5829 5.85093 13.8779 5.36824 14.2596C5.85574 14.6509 6.41368 14.9555 7.04205 15.1733C7.67041 15.3911 8.32306 15.5 8.99998 15.5ZM8.99998 8.9375C9.37306 8.9375 9.68508 8.81202 9.93606 8.56106C10.187 8.31008 10.3125 7.99806 10.3125 7.62498C10.3125 7.25191 10.187 6.93988 9.93606 6.68891C9.68508 6.43794 9.37306 6.31246 8.99998 6.31246C8.62691 6.31246 8.31488 6.43794 8.06391 6.68891C7.81294 6.93988 7.68746 7.25191 7.68746 7.62498C7.68746 7.99806 7.81294 8.31008 8.06391 8.56106C8.31488 8.81202 8.62691 8.9375 8.99998 8.9375Z" />
    </symbol>

    <symbol viewBox="0 0 24 25" id="menu-mobile-link">
        <path d="M3.5 18.1344V16.6345H20.5V18.1344H3.5ZM3.5 13.2498V11.7499H20.5V13.2498H3.5ZM3.5 8.36521V6.86523H20.5V8.36521H3.5Z" />
    </symbol>

    <symbol viewBox="0 0 24 25" id="icon-home">
        <path d="M4.50004 20.9999V11.7403L2.63273 13.173L1.73083 11.9769L4.50001 9.84997V6.98075H6.00001V8.7L12 4.125L22.2692 11.9769L21.3673 13.1576L19.5 11.7403V20.9999H4.50004ZM6.00001 19.5H10.8077V15.1153H13.1923V19.5H18V10.5999L12 6.02495L6.00001 10.5999V19.5Z" />
    </symbol>

    <symbol viewBox="0 0 24 24" id="main-polis-more">
        <path d="M12 14.7307L15.5384 11.1923H8.46158L12 14.7307ZM12.0017 21.5C10.6877 21.5 9.45271 21.2506 8.29658 20.752C7.14043 20.2533 6.13475 19.5765 5.27953 18.7217C4.4243 17.8669 3.74724 16.8616 3.24836 15.706C2.74947 14.5504 2.50003 13.3156 2.50003 12.0017C2.50003 10.6877 2.74936 9.45268 3.24803 8.29655C3.7467 7.1404 4.42345 6.13472 5.27828 5.2795C6.13313 4.42427 7.13837 3.74721 8.29401 3.24833C9.44962 2.74944 10.6844 2.5 11.9983 2.5C13.3123 2.5 14.5473 2.74933 15.7034 3.248C16.8596 3.74667 17.8653 4.42342 18.7205 5.27825C19.5757 6.1331 20.2528 7.13834 20.7517 8.29398C21.2505 9.44959 21.5 10.6844 21.5 11.9983C21.5 13.3122 21.2506 14.5473 20.752 15.7034C20.2533 16.8596 19.5766 17.8652 18.7217 18.7205C17.8669 19.5757 16.8616 20.2527 15.706 20.7516C14.5504 21.2505 13.3156 21.5 12.0017 21.5ZM12 20C14.2333 20 16.125 19.225 17.675 17.675C19.225 16.125 20 14.2333 20 12C20 9.76664 19.225 7.87498 17.675 6.32498C16.125 4.77498 14.2333 3.99998 12 3.99998C9.76667 3.99998 7.87501 4.77498 6.32501 6.32498C4.77501 7.87498 4.00001 9.76664 4.00001 12C4.00001 14.2333 4.77501 16.125 6.32501 17.675C7.87501 19.225 9.76667 20 12 20Z" />
    </symbol>

    <symbol viewBox="0 0 24 24" id="icon-logout">
        <path d="M5.3077 20.5C4.80257 20.5 4.375 20.325 4.025 19.975C3.675 19.625 3.5 19.1974 3.5 18.6923V5.3077C3.5 4.80257 3.675 4.375 4.025 4.025C4.375 3.675 4.80257 3.5 5.3077 3.5H12.0096V4.99998H5.3077C5.23077 4.99998 5.16024 5.03203 5.09612 5.09613C5.03202 5.16024 4.99997 5.23077 4.99997 5.3077V18.6923C4.99997 18.7692 5.03202 18.8397 5.09612 18.9038C5.16024 18.9679 5.23077 19 5.3077 19H12.0096V20.5H5.3077ZM16.2308 16.2692L15.1923 15.1846L17.6269 12.75H9.09613V11.25H17.6269L15.1923 8.81538L16.2308 7.7308L20.5 12L16.2308 16.2692Z" />
    </symbol>

    <symbol viewBox="0 0 16 16" id="pager-prev">
        <path fill-rule="evenodd" clip-rule="evenodd" d="M4.20503 8.4714C3.93166 8.21105 3.93166 7.78895 4.20503 7.5286L9.80502 2.19526C10.0784 1.93491 10.5216 1.93491 10.795 2.19526C11.0683 2.45561 11.0683 2.87772 10.795 3.13807L5.68995 8L10.795 12.8619C11.0683 13.1223 11.0683 13.5444 10.795 13.8047C10.5216 14.0651 10.0784 14.0651 9.80503 13.8047L4.20503 8.4714Z" />
    </symbol>

    <symbol viewBox="0 0 16 16" id="pager-next">
        <path fill-rule="evenodd" clip-rule="evenodd" d="M11.795 7.5286C12.0683 7.78895 12.0683 8.21105 11.795 8.4714L6.19498 13.8047C5.92161 14.0651 5.47839 14.0651 5.20503 13.8047C4.93166 13.5444 4.93166 13.1223 5.20503 12.8619L10.3101 8L5.20503 3.13807C4.93166 2.87772 4.93166 2.45561 5.20503 2.19526C5.47839 1.93491 5.92161 1.93491 6.19498 2.19526L11.795 7.5286Z" />
    </symbol>

    <symbol viewBox="0 0 18 18" id="icon-download">
        <path d="M8.99998 11.8413L5.7981 8.63944L6.58847 7.82599L8.4375 9.67502V3.375H9.56246V9.67502L11.4115 7.82599L12.2019 8.63944L8.99998 11.8413ZM4.73077 14.625C4.35193 14.625 4.03125 14.4937 3.76875 14.2312C3.50625 13.9687 3.375 13.648 3.375 13.2692V11.2356H4.49998V13.2692C4.49998 13.3269 4.52402 13.3798 4.57209 13.4279C4.62018 13.4759 4.67308 13.5 4.73077 13.5H13.2692C13.3269 13.5 13.3798 13.4759 13.4279 13.4279C13.4759 13.3798 13.5 13.3269 13.5 13.2692V11.2356H14.625V13.2692C14.625 13.648 14.4937 13.9687 14.2312 14.2312C13.9687 14.4937 13.648 14.625 13.2692 14.625H4.73077Z" />
    </symbol>

    <symbol viewBox="0 0 48 49" id="icon-empty">
        <path d="M6 36.4231V34.4231H25.1154V36.4231H6ZM6 26.8462V24.8462H14.923V26.8462H6ZM6 17.2693V15.2693H14.923V17.2693H6ZM40.5846 36.5L32.8077 28.8385C32.0846 29.3795 31.2994 29.7981 30.452 30.0943C29.6045 30.3904 28.7359 30.5385 27.8461 30.5385C25.6009 30.5385 23.687 29.7622 22.1045 28.2096C20.522 26.657 19.7308 24.7603 19.7308 22.5193C19.7308 20.2782 20.5229 18.3814 22.1072 16.8289C23.6915 15.2763 25.6075 14.5 27.8552 14.5C30.1031 14.5 32.0161 15.2763 33.5943 16.8289C35.1725 18.3814 35.9616 20.2718 35.9616 22.5C35.9616 23.3897 35.8135 24.2583 35.5173 25.1058C35.2212 25.9532 34.7898 26.7257 34.2231 27.4231L42 35.0846L40.5846 36.5ZM27.8461 28.5385C29.5449 28.5385 30.9888 27.9551 32.1779 26.7885C33.367 25.6218 33.9616 24.1987 33.9616 22.5193C33.9616 20.8398 33.367 19.4167 32.1779 18.25C30.9888 17.0833 29.5449 16.5 27.8461 16.5C26.1474 16.5 24.7035 17.0833 23.5144 18.25C22.3253 19.4167 21.7308 20.8398 21.7308 22.5193C21.7308 24.1987 22.3253 25.6218 23.5144 26.7885C24.7035 27.9551 26.1474 28.5385 27.8461 28.5385Z" />
    </symbol>

    <symbol viewBox="0 0 22 22" id="icon-email">
        <path d="M3.94856 17.875C3.48552 17.875 3.09359 17.7145 2.77275 17.3937C2.45192 17.0729 2.2915 16.6809 2.2915 16.2179V5.78206C2.2915 5.31902 2.45192 4.92708 2.77275 4.60625C3.09359 4.28542 3.48552 4.125 3.94856 4.125H18.0511C18.5141 4.125 18.906 4.28542 19.2269 4.60625C19.5477 4.92708 19.7081 5.31902 19.7081 5.78206V16.2179C19.7081 16.6809 19.5477 17.0729 19.2269 17.3937C18.906 17.7145 18.5141 17.875 18.0511 17.875H3.94856ZM10.9998 11.5112L3.66648 6.82206V16.2179C3.66648 16.3002 3.69293 16.3677 3.74582 16.4206C3.79871 16.4735 3.86629 16.5 3.94856 16.5H18.0511C18.1333 16.5 18.2009 16.4735 18.2538 16.4206C18.3067 16.3677 18.3331 16.3002 18.3331 16.2179V6.82206L10.9998 11.5112ZM10.9998 10.0833L18.1921 5.49998H3.80751L10.9998 10.0833ZM3.66648 6.82206V5.49998V16.2179C3.66648 16.3002 3.69293 16.3677 3.74582 16.4206C3.79871 16.4735 3.86629 16.5 3.94856 16.5H3.66648V6.82206Z" />
    </symbol>

    <symbol viewBox="0 0 22 22" id="icon-phone">
        <path d="M17.8205 18.7903C16.0929 18.7903 14.3574 18.3887 12.614 17.5854C10.8706 16.7822 9.26877 15.649 7.80858 14.1858C6.34838 12.7227 5.21665 11.1209 4.41339 9.38042C3.61013 7.63993 3.2085 5.9059 3.2085 4.17835C3.2085 3.90083 3.30016 3.66957 3.4835 3.48455C3.66683 3.29954 3.896 3.20703 4.171 3.20703H7.1607C7.39222 3.20703 7.59642 3.28254 7.77329 3.43356C7.95016 3.58458 8.06268 3.77115 8.11085 3.99326L8.63617 6.69034C8.67261 6.94067 8.66497 7.15573 8.61326 7.33554C8.56155 7.51534 8.46871 7.66636 8.33473 7.78858L6.21759 9.84931C6.55841 10.4734 6.9477 11.0636 7.38547 11.6201C7.82324 12.1765 8.29714 12.708 8.80718 13.2146C9.31018 13.7175 9.84491 14.1847 10.4114 14.616C10.9778 15.0473 11.5895 15.4486 12.2465 15.82L14.3037 13.7452C14.4471 13.5959 14.6207 13.4913 14.8246 13.4314C15.0285 13.3715 15.2403 13.3568 15.4601 13.3873L18.0056 13.9056C18.2371 13.9667 18.426 14.0848 18.5723 14.2599C18.7186 14.435 18.7918 14.6336 18.7918 14.8558V17.8278C18.7918 18.1028 18.6993 18.332 18.5143 18.5153C18.3293 18.6987 18.098 18.7903 17.8205 18.7903ZM5.56713 8.54838L7.20303 6.98299C7.23241 6.95948 7.25151 6.92716 7.26032 6.88603C7.26914 6.84489 7.26767 6.80669 7.25592 6.77144L6.85752 4.72304C6.84577 4.67603 6.8252 4.64077 6.79583 4.61728C6.76645 4.59377 6.72825 4.58201 6.68124 4.58201H4.72097C4.68573 4.58201 4.65635 4.59377 4.63284 4.61728C4.60932 4.64077 4.59757 4.67015 4.59757 4.70542C4.64458 5.3318 4.74711 5.96818 4.90518 6.61456C5.06326 7.26093 5.28391 7.90554 5.56713 8.54838ZM13.5421 16.4705C14.1497 16.7537 14.7834 16.9702 15.4433 17.1201C16.1032 17.2699 16.7199 17.3589 17.2934 17.3871C17.3287 17.3871 17.358 17.3754 17.3815 17.3519C17.4051 17.3284 17.4168 17.299 17.4168 17.2637V15.3352C17.4168 15.2882 17.4051 15.25 17.3815 15.2206C17.358 15.1912 17.3228 15.1707 17.2758 15.1589L15.3508 14.7676C15.3155 14.7558 15.2847 14.7544 15.2582 14.7632C15.2318 14.772 15.2039 14.7911 15.1745 14.8205L13.5421 16.4705Z" />
    </symbol>

    <symbol viewBox="0 0 22 22" id="icon-location">
        <path d="M11.0017 11.3779C11.4578 11.3779 11.8477 11.2155 12.1715 10.8907C12.4953 10.5659 12.6571 10.1754 12.6571 9.71928C12.6571 9.26316 12.4947 8.87322 12.1699 8.54945C11.8451 8.22569 11.4547 8.0638 10.9985 8.0638C10.5424 8.0638 10.1525 8.22621 9.82872 8.55101C9.50495 8.87582 9.34307 9.26628 9.34307 9.7224C9.34307 10.1785 9.50547 10.5685 9.83027 10.8922C10.1551 11.216 10.5455 11.3779 11.0017 11.3779ZM11.0001 18.3886C12.7935 16.7833 14.1658 15.2435 15.1172 13.7692C16.0685 12.2949 16.5442 11.0036 16.5442 9.89535C16.5442 8.2242 16.0133 6.85038 14.9515 5.77388C13.8897 4.69738 12.5725 4.15912 11.0001 4.15912C9.42767 4.15912 8.11055 4.69738 7.04874 5.77388C5.98693 6.85038 5.45603 8.2242 5.45603 9.89535C5.45603 11.0036 5.9317 12.2949 6.88303 13.7692C7.83438 15.2435 9.20673 16.7833 11.0001 18.3886ZM11.0001 20.2184C8.69317 18.2194 6.96326 16.359 5.81037 14.6373C4.65749 12.9157 4.08105 11.335 4.08105 9.89535C4.08105 7.77999 4.76532 6.06742 6.13386 4.75764C7.50238 3.44786 9.12446 2.79297 11.0001 2.79297C12.8757 2.79297 14.4978 3.44786 15.8663 4.75764C17.2349 6.06742 17.9191 7.77999 17.9191 9.89535C17.9191 11.335 17.3427 12.9157 16.1898 14.6373C15.0369 16.359 13.307 18.2194 11.0001 20.2184Z" />
    </symbol>

    <symbol viewBox="0 0 12 12" id="back-link">
        <path fill-rule="evenodd" clip-rule="evenodd" d="M3.15377 5.64645C2.94874 5.84171 2.94874 6.15829 3.15377 6.35355L7.35377 10.3536C7.55879 10.5488 7.89121 10.5488 8.09623 10.3536C8.30126 10.1583 8.30126 9.84171 8.09623 9.64645L4.26746 6L8.09623 2.35355C8.30126 2.15829 8.30126 1.84171 8.09623 1.64645C7.89121 1.45118 7.5588 1.45118 7.35377 1.64645L3.15377 5.64645Z" />
    </symbol>

    <symbol viewBox="0 0 24 24" id="icon-edit">
        <path d="M5.0001 19H6.26162L16.4982 8.7634L15.2367 7.50188L5.0001 17.7385V19ZM3.50012 20.5V17.1154L16.6905 3.93078C16.8417 3.79343 17.0087 3.68729 17.1914 3.61237C17.3741 3.53746 17.5657 3.5 17.7662 3.5C17.9667 3.5 18.161 3.53558 18.3489 3.60675C18.5369 3.6779 18.7033 3.79103 18.8481 3.94615L20.0693 5.18268C20.2244 5.32754 20.335 5.49424 20.401 5.68278C20.4671 5.87129 20.5001 6.05981 20.5001 6.24833C20.5001 6.44941 20.4657 6.64131 20.397 6.82403C20.3284 7.00676 20.2191 7.17373 20.0693 7.32495L6.8847 20.5H3.50012ZM15.8564 8.1437L15.2367 7.50188L16.4982 8.7634L15.8564 8.1437Z" />
    </symbol>

    <symbol viewBox="0 0 24 24" id="icon-add">
        <path d="M11.25 16.75H12.75V12.75H16.75V11.25H12.75V7.25H11.25V11.25H7.25003V12.75H11.25V16.75ZM12.0017 21.5C10.6877 21.5 9.45271 21.2506 8.29658 20.752C7.14043 20.2533 6.13475 19.5765 5.27953 18.7217C4.4243 17.8669 3.74724 16.8616 3.24836 15.706C2.74947 14.5504 2.50003 13.3156 2.50003 12.0017C2.50003 10.6877 2.74936 9.45268 3.24803 8.29655C3.7467 7.1404 4.42345 6.13472 5.27828 5.2795C6.13313 4.42427 7.13837 3.74721 8.29401 3.24833C9.44962 2.74944 10.6844 2.5 11.9983 2.5C13.3123 2.5 14.5473 2.74933 15.7034 3.248C16.8596 3.74667 17.8653 4.42342 18.7205 5.27825C19.5757 6.1331 20.2528 7.13834 20.7517 8.29398C21.2505 9.44959 21.5 10.6844 21.5 11.9983C21.5 13.3122 21.2506 14.5473 20.752 15.7034C20.2533 16.8596 19.5766 17.8652 18.7217 18.7205C17.8669 19.5757 16.8616 20.2527 15.706 20.7516C14.5504 21.2505 13.3156 21.5 12.0017 21.5ZM12 20C14.2333 20 16.125 19.225 17.675 17.675C19.225 16.125 20 14.2333 20 12C20 9.76664 19.225 7.87498 17.675 6.32498C16.125 4.77498 14.2333 3.99998 12 3.99998C9.76667 3.99998 7.87501 4.77498 6.32501 6.32498C4.77501 7.87498 4.00001 9.76664 4.00001 12C4.00001 14.2333 4.77501 16.125 6.32501 17.675C7.87501 19.225 9.76667 20 12 20Z" />
    </symbol>

    <symbol viewBox="0 0 16 16" id="apps-close">
        <path d="M13.5303 3.53033C13.8232 3.23744 13.8232 2.76256 13.5303 2.46967C13.2374 2.17678 12.7626 2.17678 12.4697 2.46967L8 6.93934L3.53033 2.46967C3.23744 2.17678 2.76256 2.17678 2.46967 2.46967C2.17678 2.76256 2.17678 3.23744 2.46967 3.53033L6.93934 8L2.46967 12.4697C2.17678 12.7626 2.17678 13.2374 2.46967 13.5303C2.76256 13.8232 3.23744 13.8232 3.53033 13.5303L8 9.06066L12.4697 13.5303C12.7626 13.8232 13.2374 13.8232 13.5303 13.5303C13.8232 13.2374 13.8232 12.7626 13.5303 12.4697L9.06066 8L13.5303 3.53033Z" />
    </symbol>

    <symbol viewBox="0 0 34 34" id="icon-info">
        <path d="M15.9368 23.7294H18.0618V15.5836H15.9368V23.7294ZM16.9993 13.159C17.3235 13.159 17.5953 13.0493 17.8146 12.83C18.0339 12.6107 18.1435 12.339 18.1435 12.0148C18.1435 11.6906 18.0339 11.4188 17.8146 11.1995C17.5953 10.9802 17.3235 10.8706 16.9993 10.8706C16.6751 10.8706 16.4034 10.9802 16.1841 11.1995C15.9648 11.4188 15.8551 11.6906 15.8551 12.0148C15.8551 12.339 15.9648 12.6107 16.1841 12.83C16.4034 13.0493 16.6751 13.159 16.9993 13.159ZM17.0017 30.4586C15.1403 30.4586 13.3907 30.1054 11.7528 29.3989C10.1149 28.6925 8.6902 27.7338 7.47864 26.5227C6.26706 25.3117 5.30789 23.8876 4.60114 22.2505C3.89439 20.6133 3.54102 18.8641 3.54102 17.0027C3.54102 15.1413 3.89424 13.3916 4.60068 11.7538C5.30713 10.1159 6.26586 8.69118 7.47687 7.47962C8.68791 6.26804 10.112 5.30887 11.7491 4.60212C13.3863 3.89537 15.1355 3.54199 16.9969 3.54199C18.8583 3.54199 20.608 3.89522 22.2458 4.60166C23.8837 5.3081 25.3084 6.26683 26.52 7.47785C27.7316 8.68888 28.6907 10.113 29.3975 11.7501C30.1042 13.3872 30.4576 15.1365 30.4576 16.9979C30.4576 18.8593 30.1044 20.609 29.3979 22.2468C28.6915 23.8847 27.7328 25.3094 26.5218 26.521C25.3107 27.7325 23.8866 28.6917 22.2495 29.3985C20.6124 30.1052 18.8631 30.4586 17.0017 30.4586ZM16.9993 28.3336C20.1632 28.3336 22.8431 27.2357 25.0389 25.0399C27.2347 22.844 28.3326 20.1642 28.3326 17.0003C28.3326 13.8364 27.2347 11.1565 25.0389 8.96071C22.8431 6.76487 20.1632 5.66696 16.9993 5.66696C13.8354 5.66696 11.1556 6.76487 8.95973 8.96071C6.7639 11.1565 5.66598 13.8364 5.66598 17.0003C5.66598 20.1642 6.7639 22.844 8.95973 25.0399C11.1556 27.2357 13.8354 28.3336 16.9993 28.3336Z" />
    </symbol>

    <symbol viewBox="0 0 16 16" id="faq-arrow">
        <path fill-rule="evenodd" clip-rule="evenodd" d="M7.52866 12.498C7.78901 12.7714 8.21112 12.7714 8.47147 12.498L13.8048 6.89805C14.0651 6.62468 14.0651 6.18147 13.8048 5.9081C13.5444 5.63473 13.1223 5.63473 12.862 5.9081L8.00006 11.0131L3.13813 5.9081C2.87778 5.63473 2.45567 5.63473 2.19532 5.9081C1.93497 6.18146 1.93497 6.62468 2.19532 6.89805L7.52866 12.498Z" />
    </symbol>

</svg>