<svg version="1.1" xmlns="http://www.w3.org/2000/svg" xmlns:xlink="http://www.w3.org/1999/xlink">

    <symbol viewBox="0 0 14 14" id="form-input-clear">
        <path d="M1.74621 13.6534L0.692383 12.5995L6.29238 6.99953L0.692383 1.39953L1.74621 0.345703L7.34621 5.9457L12.9462 0.345703L14 1.39953L8.40003 6.99953L14 12.5995L12.9462 13.6534L7.34621 8.05335L1.74621 13.6534Z" />
    </symbol>

    <symbol viewBox="0 0 24 24" id="auth-close">
        <path d="M6.40002 18.6534L5.34619 17.5995L10.9462 11.9995L5.34619 6.39953L6.40002 5.3457L12 10.9457L17.6 5.3457L18.6538 6.39953L13.0538 11.9995L18.6538 17.5995L17.6 18.6534L12 13.0534L6.40002 18.6534Z" />
    </symbol>

    <symbol viewBox="0 0 16 16" id="auth-submit">
        <path fill-rule="evenodd" clip-rule="evenodd" d="M12.5 8.4714C12.7734 8.21105 12.7734 7.78895 12.5 7.5286L6.90005 2.19526C6.62668 1.93491 6.18346 1.93491 5.9101 2.19526C5.63673 2.45561 5.63673 2.87772 5.9101 3.13807L11.0151 8L5.9101 12.8619C5.63673 13.1223 5.63673 13.5444 5.9101 13.8047C6.18346 14.0651 6.62668 14.0651 6.90005 13.8047L12.5 8.4714Z" />
    </symbol>

    <symbol viewBox="0 0 12 13" id="auth-back">
        <path fill-rule="evenodd" clip-rule="evenodd" d="M3.15377 6.85355C2.94874 6.65829 2.94874 6.34171 3.15377 6.14645L7.35377 2.14645C7.55879 1.95118 7.89121 1.95118 8.09623 2.14645C8.30126 2.34171 8.30126 2.65829 8.09623 2.85355L4.26746 6.5L8.09623 10.1464C8.30126 10.3417 8.30126 10.6583 8.09623 10.8536C7.89121 11.0488 7.55879 11.0488 7.35377 10.8536L3.15377 6.85355Z" />
    </symbol>

</svg>