<svg version="1.1" xmlns="http://www.w3.org/2000/svg" xmlns:xlink="http://www.w3.org/1999/xlink">

    <symbol viewBox="0 0 14 14" id="form-input-clear">
        <path d="M1.74621 13.6534L0.692383 12.5995L6.29238 6.99953L0.692383 1.39953L1.74621 0.345703L7.34621 5.9457L12.9462 0.345703L14 1.39953L8.40003 6.99953L14 12.5995L12.9462 13.6534L7.34621 8.05335L1.74621 13.6534Z" />
    </symbol>

    <symbol viewBox="0 0 24 24" id="auth-close">
        <path d="M6.40002 18.6534L5.34619 17.5995L10.9462 11.9995L5.34619 6.39953L6.40002 5.3457L12 10.9457L17.6 5.3457L18.6538 6.39953L13.0538 11.9995L18.6538 17.5995L17.6 18.6534L12 13.0534L6.40002 18.6534Z" />
    </symbol>

    <symbol viewBox="0 0 16 16" id="auth-submit">
        <path fill-rule="evenodd" clip-rule="evenodd" d="M12.5 8.4714C12.7734 8.21105 12.7734 7.78895 12.5 7.5286L6.90005 2.19526C6.62668 1.93491 6.18346 1.93491 5.9101 2.19526C5.63673 2.45561 5.63673 2.87772 5.9101 3.13807L11.0151 8L5.9101 12.8619C5.63673 13.1223 5.63673 13.5444 5.9101 13.8047C6.18346 14.0651 6.62668 14.0651 6.90005 13.8047L12.5 8.4714Z" />
    </symbol>

    <symbol viewBox="0 0 12 13" id="auth-back">
        <path fill-rule="evenodd" clip-rule="evenodd" d="M3.15377 6.85355C2.94874 6.65829 2.94874 6.34171 3.15377 6.14645L7.35377 2.14645C7.55879 1.95118 7.89121 1.95118 8.09623 2.14645C8.30126 2.34171 8.30126 2.65829 8.09623 2.85355L4.26746 6.5L8.09623 10.1464C8.30126 10.3417 8.30126 10.6583 8.09623 10.8536C7.89121 11.0488 7.55879 11.0488 7.35377 10.8536L3.15377 6.85355Z" />
    </symbol>

    <symbol viewBox="0 0 24 24" id="icon-user">
        <path d="M6.02308 17.2923C6.87308 16.6615 7.79903 16.1635 8.80095 15.7981C9.80287 15.4327 10.8692 15.25 12 15.25C13.1307 15.25 14.1971 15.4327 15.199 15.7981C16.2009 16.1635 17.1269 16.6615 17.9769 17.2923C18.5987 16.609 19.0913 15.8179 19.4548 14.9192C19.8182 14.0205 20 13.0474 20 12C20 9.78331 19.2208 7.89581 17.6625 6.33748C16.1041 4.77914 14.2166 3.99998 12 3.99998C9.78331 3.99998 7.89581 4.77914 6.33748 6.33748C4.77914 7.89581 3.99998 9.78331 3.99998 12C3.99998 13.0474 4.18171 14.0205 4.54518 14.9192C4.90864 15.8179 5.40128 16.609 6.02308 17.2923ZM12.0003 12.75C11.0873 12.75 10.3173 12.4366 9.69038 11.8099C9.06346 11.1831 8.75 10.4133 8.75 9.50028C8.75 8.58726 9.06336 7.81729 9.69008 7.19038C10.3168 6.56346 11.0867 6.25 11.9997 6.25C12.9127 6.25 13.6827 6.56336 14.3096 7.19008C14.9365 7.81681 15.25 8.58668 15.25 9.49968C15.25 10.4127 14.9366 11.1827 14.3099 11.8096C13.6831 12.4365 12.9133 12.75 12.0003 12.75ZM12 21.5C10.6807 21.5 9.44325 21.2519 8.2875 20.7557C7.13173 20.2596 6.12628 19.5839 5.27115 18.7288C4.41603 17.8737 3.7404 16.8682 3.24425 15.7125C2.74808 14.5567 2.5 13.3192 2.5 12C2.5 10.6807 2.74808 9.44325 3.24425 8.2875C3.7404 7.13173 4.41603 6.12628 5.27115 5.27115C6.12628 4.41603 7.13173 3.7404 8.2875 3.24425C9.44325 2.74808 10.6807 2.5 12 2.5C13.3192 2.5 14.5567 2.74808 15.7125 3.24425C16.8682 3.7404 17.8737 4.41603 18.7288 5.27115C19.5839 6.12628 20.2596 7.13173 20.7557 8.2875C21.2519 9.44325 21.5 10.6807 21.5 12C21.5 13.3192 21.2519 14.5567 20.7557 15.7125C20.2596 16.8682 19.5839 17.8737 18.7288 18.7288C17.8737 19.5839 16.8682 20.2596 15.7125 20.7557C14.5567 21.2519 13.3192 21.5 12 21.5ZM12 20C12.9025 20 13.7727 19.8548 14.6105 19.5644C15.4484 19.274 16.1923 18.8679 16.8423 18.3461C16.1923 17.8436 15.458 17.4519 14.6394 17.1711C13.8208 16.8903 12.941 16.75 12 16.75C11.0589 16.75 10.1775 16.8887 9.35573 17.1663C8.53393 17.4439 7.80123 17.8371 7.15765 18.3461C7.80765 18.8679 8.55157 19.274 9.3894 19.5644C10.2272 19.8548 11.0974 20 12 20ZM12 11.25C12.4974 11.25 12.9134 11.0827 13.2481 10.7481C13.5827 10.4134 13.75 9.99741 13.75 9.49998C13.75 9.00254 13.5827 8.58651 13.2481 8.25188C12.9134 7.91726 12.4974 7.74995 12 7.74995C11.5025 7.74995 11.0865 7.91726 10.7519 8.25188C10.4173 8.58651 10.25 9.00254 10.25 9.49998C10.25 9.99741 10.4173 10.4134 10.7519 10.7481C11.0865 11.0827 11.5025 11.25 12 11.25Z" />
    </symbol>

    <symbol viewBox="0 0 24 25" id="menu-mobile-link">
        <path d="M3.5 18.1344V16.6345H20.5V18.1344H3.5ZM3.5 13.2498V11.7499H20.5V13.2498H3.5ZM3.5 8.36521V6.86523H20.5V8.36521H3.5Z" />
    </symbol>

    <symbol viewBox="0 0 24 24" id="main-polis-more">
        <path d="M12 14.7307L15.5384 11.1923H8.46158L12 14.7307ZM12.0017 21.5C10.6877 21.5 9.45271 21.2506 8.29658 20.752C7.14043 20.2533 6.13475 19.5765 5.27953 18.7217C4.4243 17.8669 3.74724 16.8616 3.24836 15.706C2.74947 14.5504 2.50003 13.3156 2.50003 12.0017C2.50003 10.6877 2.74936 9.45268 3.24803 8.29655C3.7467 7.1404 4.42345 6.13472 5.27828 5.2795C6.13313 4.42427 7.13837 3.74721 8.29401 3.24833C9.44962 2.74944 10.6844 2.5 11.9983 2.5C13.3123 2.5 14.5473 2.74933 15.7034 3.248C16.8596 3.74667 17.8653 4.42342 18.7205 5.27825C19.5757 6.1331 20.2528 7.13834 20.7517 8.29398C21.2505 9.44959 21.5 10.6844 21.5 11.9983C21.5 13.3122 21.2506 14.5473 20.752 15.7034C20.2533 16.8596 19.5766 17.8652 18.7217 18.7205C17.8669 19.5757 16.8616 20.2527 15.706 20.7516C14.5504 21.2505 13.3156 21.5 12.0017 21.5ZM12 20C14.2333 20 16.125 19.225 17.675 17.675C19.225 16.125 20 14.2333 20 12C20 9.76664 19.225 7.87498 17.675 6.32498C16.125 4.77498 14.2333 3.99998 12 3.99998C9.76667 3.99998 7.87501 4.77498 6.32501 6.32498C4.77501 7.87498 4.00001 9.76664 4.00001 12C4.00001 14.2333 4.77501 16.125 6.32501 17.675C7.87501 19.225 9.76667 20 12 20Z" />
    </symbol>

    <symbol viewBox="0 0 24 24" id="icon-logout">
        <path d="M5.3077 20.5C4.80257 20.5 4.375 20.325 4.025 19.975C3.675 19.625 3.5 19.1974 3.5 18.6923V5.3077C3.5 4.80257 3.675 4.375 4.025 4.025C4.375 3.675 4.80257 3.5 5.3077 3.5H12.0096V4.99998H5.3077C5.23077 4.99998 5.16024 5.03203 5.09612 5.09613C5.03202 5.16024 4.99997 5.23077 4.99997 5.3077V18.6923C4.99997 18.7692 5.03202 18.8397 5.09612 18.9038C5.16024 18.9679 5.23077 19 5.3077 19H12.0096V20.5H5.3077ZM16.2308 16.2692L15.1923 15.1846L17.6269 12.75H9.09613V11.25H17.6269L15.1923 8.81538L16.2308 7.7308L20.5 12L16.2308 16.2692Z" />
    </symbol>

    <symbol viewBox="0 0 16 16" id="pager-prev">
        <path fill-rule="evenodd" clip-rule="evenodd" d="M4.20503 8.4714C3.93166 8.21105 3.93166 7.78895 4.20503 7.5286L9.80502 2.19526C10.0784 1.93491 10.5216 1.93491 10.795 2.19526C11.0683 2.45561 11.0683 2.87772 10.795 3.13807L5.68995 8L10.795 12.8619C11.0683 13.1223 11.0683 13.5444 10.795 13.8047C10.5216 14.0651 10.0784 14.0651 9.80503 13.8047L4.20503 8.4714Z" />
    </symbol>

    <symbol viewBox="0 0 16 16" id="pager-next">
        <path fill-rule="evenodd" clip-rule="evenodd" d="M11.795 7.5286C12.0683 7.78895 12.0683 8.21105 11.795 8.4714L6.19498 13.8047C5.92161 14.0651 5.47839 14.0651 5.20503 13.8047C4.93166 13.5444 4.93166 13.1223 5.20503 12.8619L10.3101 8L5.20503 3.13807C4.93166 2.87772 4.93166 2.45561 5.20503 2.19526C5.47839 1.93491 5.92161 1.93491 6.19498 2.19526L11.795 7.5286Z" />
    </symbol>

    <symbol viewBox="0 0 18 18" id="icon-download">
        <path d="M8.99998 11.8413L5.7981 8.63944L6.58847 7.82599L8.4375 9.67502V3.375H9.56246V9.67502L11.4115 7.82599L12.2019 8.63944L8.99998 11.8413ZM4.73077 14.625C4.35193 14.625 4.03125 14.4937 3.76875 14.2312C3.50625 13.9687 3.375 13.648 3.375 13.2692V11.2356H4.49998V13.2692C4.49998 13.3269 4.52402 13.3798 4.57209 13.4279C4.62018 13.4759 4.67308 13.5 4.73077 13.5H13.2692C13.3269 13.5 13.3798 13.4759 13.4279 13.4279C13.4759 13.3798 13.5 13.3269 13.5 13.2692V11.2356H14.625V13.2692C14.625 13.648 14.4937 13.9687 14.2312 14.2312C13.9687 14.4937 13.648 14.625 13.2692 14.625H4.73077Z" />
    </symbol>

    <symbol viewBox="0 0 48 49" id="icon-empty">
        <path d="M6 36.4231V34.4231H25.1154V36.4231H6ZM6 26.8462V24.8462H14.923V26.8462H6ZM6 17.2693V15.2693H14.923V17.2693H6ZM40.5846 36.5L32.8077 28.8385C32.0846 29.3795 31.2994 29.7981 30.452 30.0943C29.6045 30.3904 28.7359 30.5385 27.8461 30.5385C25.6009 30.5385 23.687 29.7622 22.1045 28.2096C20.522 26.657 19.7308 24.7603 19.7308 22.5193C19.7308 20.2782 20.5229 18.3814 22.1072 16.8289C23.6915 15.2763 25.6075 14.5 27.8552 14.5C30.1031 14.5 32.0161 15.2763 33.5943 16.8289C35.1725 18.3814 35.9616 20.2718 35.9616 22.5C35.9616 23.3897 35.8135 24.2583 35.5173 25.1058C35.2212 25.9532 34.7898 26.7257 34.2231 27.4231L42 35.0846L40.5846 36.5ZM27.8461 28.5385C29.5449 28.5385 30.9888 27.9551 32.1779 26.7885C33.367 25.6218 33.9616 24.1987 33.9616 22.5193C33.9616 20.8398 33.367 19.4167 32.1779 18.25C30.9888 17.0833 29.5449 16.5 27.8461 16.5C26.1474 16.5 24.7035 17.0833 23.5144 18.25C22.3253 19.4167 21.7308 20.8398 21.7308 22.5193C21.7308 24.1987 22.3253 25.6218 23.5144 26.7885C24.7035 27.9551 26.1474 28.5385 27.8461 28.5385Z" />
    </symbol>

    <symbol viewBox="0 0 22 22" id="icon-email">
        <path d="M3.94856 17.875C3.48552 17.875 3.09359 17.7145 2.77275 17.3937C2.45192 17.0729 2.2915 16.6809 2.2915 16.2179V5.78206C2.2915 5.31902 2.45192 4.92708 2.77275 4.60625C3.09359 4.28542 3.48552 4.125 3.94856 4.125H18.0511C18.5141 4.125 18.906 4.28542 19.2269 4.60625C19.5477 4.92708 19.7081 5.31902 19.7081 5.78206V16.2179C19.7081 16.6809 19.5477 17.0729 19.2269 17.3937C18.906 17.7145 18.5141 17.875 18.0511 17.875H3.94856ZM10.9998 11.5112L3.66648 6.82206V16.2179C3.66648 16.3002 3.69293 16.3677 3.74582 16.4206C3.79871 16.4735 3.86629 16.5 3.94856 16.5H18.0511C18.1333 16.5 18.2009 16.4735 18.2538 16.4206C18.3067 16.3677 18.3331 16.3002 18.3331 16.2179V6.82206L10.9998 11.5112ZM10.9998 10.0833L18.1921 5.49998H3.80751L10.9998 10.0833ZM3.66648 6.82206V5.49998V16.2179C3.66648 16.3002 3.69293 16.3677 3.74582 16.4206C3.79871 16.4735 3.86629 16.5 3.94856 16.5H3.66648V6.82206Z" />
    </symbol>

    <symbol viewBox="0 0 22 22" id="icon-phone">
        <path d="M17.8205 18.7903C16.0929 18.7903 14.3574 18.3887 12.614 17.5854C10.8706 16.7822 9.26877 15.649 7.80858 14.1858C6.34838 12.7227 5.21665 11.1209 4.41339 9.38042C3.61013 7.63993 3.2085 5.9059 3.2085 4.17835C3.2085 3.90083 3.30016 3.66957 3.4835 3.48455C3.66683 3.29954 3.896 3.20703 4.171 3.20703H7.1607C7.39222 3.20703 7.59642 3.28254 7.77329 3.43356C7.95016 3.58458 8.06268 3.77115 8.11085 3.99326L8.63617 6.69034C8.67261 6.94067 8.66497 7.15573 8.61326 7.33554C8.56155 7.51534 8.46871 7.66636 8.33473 7.78858L6.21759 9.84931C6.55841 10.4734 6.9477 11.0636 7.38547 11.6201C7.82324 12.1765 8.29714 12.708 8.80718 13.2146C9.31018 13.7175 9.84491 14.1847 10.4114 14.616C10.9778 15.0473 11.5895 15.4486 12.2465 15.82L14.3037 13.7452C14.4471 13.5959 14.6207 13.4913 14.8246 13.4314C15.0285 13.3715 15.2403 13.3568 15.4601 13.3873L18.0056 13.9056C18.2371 13.9667 18.426 14.0848 18.5723 14.2599C18.7186 14.435 18.7918 14.6336 18.7918 14.8558V17.8278C18.7918 18.1028 18.6993 18.332 18.5143 18.5153C18.3293 18.6987 18.098 18.7903 17.8205 18.7903ZM5.56713 8.54838L7.20303 6.98299C7.23241 6.95948 7.25151 6.92716 7.26032 6.88603C7.26914 6.84489 7.26767 6.80669 7.25592 6.77144L6.85752 4.72304C6.84577 4.67603 6.8252 4.64077 6.79583 4.61728C6.76645 4.59377 6.72825 4.58201 6.68124 4.58201H4.72097C4.68573 4.58201 4.65635 4.59377 4.63284 4.61728C4.60932 4.64077 4.59757 4.67015 4.59757 4.70542C4.64458 5.3318 4.74711 5.96818 4.90518 6.61456C5.06326 7.26093 5.28391 7.90554 5.56713 8.54838ZM13.5421 16.4705C14.1497 16.7537 14.7834 16.9702 15.4433 17.1201C16.1032 17.2699 16.7199 17.3589 17.2934 17.3871C17.3287 17.3871 17.358 17.3754 17.3815 17.3519C17.4051 17.3284 17.4168 17.299 17.4168 17.2637V15.3352C17.4168 15.2882 17.4051 15.25 17.3815 15.2206C17.358 15.1912 17.3228 15.1707 17.2758 15.1589L15.3508 14.7676C15.3155 14.7558 15.2847 14.7544 15.2582 14.7632C15.2318 14.772 15.2039 14.7911 15.1745 14.8205L13.5421 16.4705Z" />
    </symbol>

    <symbol viewBox="0 0 22 22" id="icon-location">
        <path d="M11.0017 11.3779C11.4578 11.3779 11.8477 11.2155 12.1715 10.8907C12.4953 10.5659 12.6571 10.1754 12.6571 9.71928C12.6571 9.26316 12.4947 8.87322 12.1699 8.54945C11.8451 8.22569 11.4547 8.0638 10.9985 8.0638C10.5424 8.0638 10.1525 8.22621 9.82872 8.55101C9.50495 8.87582 9.34307 9.26628 9.34307 9.7224C9.34307 10.1785 9.50547 10.5685 9.83027 10.8922C10.1551 11.216 10.5455 11.3779 11.0017 11.3779ZM11.0001 18.3886C12.7935 16.7833 14.1658 15.2435 15.1172 13.7692C16.0685 12.2949 16.5442 11.0036 16.5442 9.89535C16.5442 8.2242 16.0133 6.85038 14.9515 5.77388C13.8897 4.69738 12.5725 4.15912 11.0001 4.15912C9.42767 4.15912 8.11055 4.69738 7.04874 5.77388C5.98693 6.85038 5.45603 8.2242 5.45603 9.89535C5.45603 11.0036 5.9317 12.2949 6.88303 13.7692C7.83438 15.2435 9.20673 16.7833 11.0001 18.3886ZM11.0001 20.2184C8.69317 18.2194 6.96326 16.359 5.81037 14.6373C4.65749 12.9157 4.08105 11.335 4.08105 9.89535C4.08105 7.77999 4.76532 6.06742 6.13386 4.75764C7.50238 3.44786 9.12446 2.79297 11.0001 2.79297C12.8757 2.79297 14.4978 3.44786 15.8663 4.75764C17.2349 6.06742 17.9191 7.77999 17.9191 9.89535C17.9191 11.335 17.3427 12.9157 16.1898 14.6373C15.0369 16.359 13.307 18.2194 11.0001 20.2184Z" />
    </symbol>

    <symbol viewBox="0 0 12 12" id="back-link">
        <path fill-rule="evenodd" clip-rule="evenodd" d="M3.15377 5.64645C2.94874 5.84171 2.94874 6.15829 3.15377 6.35355L7.35377 10.3536C7.55879 10.5488 7.89121 10.5488 8.09623 10.3536C8.30126 10.1583 8.30126 9.84171 8.09623 9.64645L4.26746 6L8.09623 2.35355C8.30126 2.15829 8.30126 1.84171 8.09623 1.64645C7.89121 1.45118 7.5588 1.45118 7.35377 1.64645L3.15377 5.64645Z" />
    </symbol>

    <symbol viewBox="0 0 24 24" id="icon-edit">
        <path d="M5.0001 19H6.26162L16.4982 8.7634L15.2367 7.50188L5.0001 17.7385V19ZM3.50012 20.5V17.1154L16.6905 3.93078C16.8417 3.79343 17.0087 3.68729 17.1914 3.61237C17.3741 3.53746 17.5657 3.5 17.7662 3.5C17.9667 3.5 18.161 3.53558 18.3489 3.60675C18.5369 3.6779 18.7033 3.79103 18.8481 3.94615L20.0693 5.18268C20.2244 5.32754 20.335 5.49424 20.401 5.68278C20.4671 5.87129 20.5001 6.05981 20.5001 6.24833C20.5001 6.44941 20.4657 6.64131 20.397 6.82403C20.3284 7.00676 20.2191 7.17373 20.0693 7.32495L6.8847 20.5H3.50012ZM15.8564 8.1437L15.2367 7.50188L16.4982 8.7634L15.8564 8.1437Z" />
    </symbol>

    <symbol viewBox="0 0 24 24" id="icon-add">
        <path d="M11.25 16.75H12.75V12.75H16.75V11.25H12.75V7.25H11.25V11.25H7.25003V12.75H11.25V16.75ZM12.0017 21.5C10.6877 21.5 9.45271 21.2506 8.29658 20.752C7.14043 20.2533 6.13475 19.5765 5.27953 18.7217C4.4243 17.8669 3.74724 16.8616 3.24836 15.706C2.74947 14.5504 2.50003 13.3156 2.50003 12.0017C2.50003 10.6877 2.74936 9.45268 3.24803 8.29655C3.7467 7.1404 4.42345 6.13472 5.27828 5.2795C6.13313 4.42427 7.13837 3.74721 8.29401 3.24833C9.44962 2.74944 10.6844 2.5 11.9983 2.5C13.3123 2.5 14.5473 2.74933 15.7034 3.248C16.8596 3.74667 17.8653 4.42342 18.7205 5.27825C19.5757 6.1331 20.2528 7.13834 20.7517 8.29398C21.2505 9.44959 21.5 10.6844 21.5 11.9983C21.5 13.3122 21.2506 14.5473 20.752 15.7034C20.2533 16.8596 19.5766 17.8652 18.7217 18.7205C17.8669 19.5757 16.8616 20.2527 15.706 20.7516C14.5504 21.2505 13.3156 21.5 12.0017 21.5ZM12 20C14.2333 20 16.125 19.225 17.675 17.675C19.225 16.125 20 14.2333 20 12C20 9.76664 19.225 7.87498 17.675 6.32498C16.125 4.77498 14.2333 3.99998 12 3.99998C9.76667 3.99998 7.87501 4.77498 6.32501 6.32498C4.77501 7.87498 4.00001 9.76664 4.00001 12C4.00001 14.2333 4.77501 16.125 6.32501 17.675C7.87501 19.225 9.76667 20 12 20Z" />
    </symbol>

    <symbol viewBox="0 0 16 16" id="apps-close">
        <path d="M13.5303 3.53033C13.8232 3.23744 13.8232 2.76256 13.5303 2.46967C13.2374 2.17678 12.7626 2.17678 12.4697 2.46967L8 6.93934L3.53033 2.46967C3.23744 2.17678 2.76256 2.17678 2.46967 2.46967C2.17678 2.76256 2.17678 3.23744 2.46967 3.53033L6.93934 8L2.46967 12.4697C2.17678 12.7626 2.17678 13.2374 2.46967 13.5303C2.76256 13.8232 3.23744 13.8232 3.53033 13.5303L8 9.06066L12.4697 13.5303C12.7626 13.8232 13.2374 13.8232 13.5303 13.5303C13.8232 13.2374 13.8232 12.7626 13.5303 12.4697L9.06066 8L13.5303 3.53033Z" />
    </symbol>

    <symbol viewBox="0 0 34 34" id="icon-info">
        <path d="M15.9368 23.7294H18.0618V15.5836H15.9368V23.7294ZM16.9993 13.159C17.3235 13.159 17.5953 13.0493 17.8146 12.83C18.0339 12.6107 18.1435 12.339 18.1435 12.0148C18.1435 11.6906 18.0339 11.4188 17.8146 11.1995C17.5953 10.9802 17.3235 10.8706 16.9993 10.8706C16.6751 10.8706 16.4034 10.9802 16.1841 11.1995C15.9648 11.4188 15.8551 11.6906 15.8551 12.0148C15.8551 12.339 15.9648 12.6107 16.1841 12.83C16.4034 13.0493 16.6751 13.159 16.9993 13.159ZM17.0017 30.4586C15.1403 30.4586 13.3907 30.1054 11.7528 29.3989C10.1149 28.6925 8.6902 27.7338 7.47864 26.5227C6.26706 25.3117 5.30789 23.8876 4.60114 22.2505C3.89439 20.6133 3.54102 18.8641 3.54102 17.0027C3.54102 15.1413 3.89424 13.3916 4.60068 11.7538C5.30713 10.1159 6.26586 8.69118 7.47687 7.47962C8.68791 6.26804 10.112 5.30887 11.7491 4.60212C13.3863 3.89537 15.1355 3.54199 16.9969 3.54199C18.8583 3.54199 20.608 3.89522 22.2458 4.60166C23.8837 5.3081 25.3084 6.26683 26.52 7.47785C27.7316 8.68888 28.6907 10.113 29.3975 11.7501C30.1042 13.3872 30.4576 15.1365 30.4576 16.9979C30.4576 18.8593 30.1044 20.609 29.3979 22.2468C28.6915 23.8847 27.7328 25.3094 26.5218 26.521C25.3107 27.7325 23.8866 28.6917 22.2495 29.3985C20.6124 30.1052 18.8631 30.4586 17.0017 30.4586ZM16.9993 28.3336C20.1632 28.3336 22.8431 27.2357 25.0389 25.0399C27.2347 22.844 28.3326 20.1642 28.3326 17.0003C28.3326 13.8364 27.2347 11.1565 25.0389 8.96071C22.8431 6.76487 20.1632 5.66696 16.9993 5.66696C13.8354 5.66696 11.1556 6.76487 8.95973 8.96071C6.7639 11.1565 5.66598 13.8364 5.66598 17.0003C5.66598 20.1642 6.7639 22.844 8.95973 25.0399C11.1556 27.2357 13.8354 28.3336 16.9993 28.3336Z" />
    </symbol>

    <symbol viewBox="0 0 16 16" id="faq-arrow">
        <path fill-rule="evenodd" clip-rule="evenodd" d="M7.52866 12.498C7.78901 12.7714 8.21112 12.7714 8.47147 12.498L13.8048 6.89805C14.0651 6.62468 14.0651 6.18147 13.8048 5.9081C13.5444 5.63473 13.1223 5.63473 12.862 5.9081L8.00006 11.0131L3.13813 5.9081C2.87778 5.63473 2.45567 5.63473 2.19532 5.9081C1.93497 6.18146 1.93497 6.62468 2.19532 6.89805L7.52866 12.498Z" />
    </symbol>

    <symbol viewBox="0 0 20 21" id="icon-checkbox-hint">
        <path d="M9.37468 14.4589H10.6246V9.6673H9.37468V14.4589ZM9.99965 8.24103C10.1904 8.24103 10.3502 8.17653 10.4792 8.04753C10.6082 7.91853 10.6727 7.75867 10.6727 7.56796C10.6727 7.37727 10.6082 7.21742 10.4792 7.0884C10.3502 6.9594 10.1904 6.8949 9.99965 6.8949C9.80895 6.8949 9.64909 6.9594 9.52009 7.0884C9.39109 7.21742 9.32659 7.37727 9.32659 7.56796C9.32659 7.75867 9.39109 7.91853 9.52009 8.04753C9.64909 8.17653 9.80895 8.24103 9.99965 8.24103ZM10.001 18.4173C8.90611 18.4173 7.87691 18.2095 6.91347 17.7939C5.95001 17.3784 5.11194 16.8144 4.39926 16.1021C3.68656 15.3897 3.12235 14.552 2.70661 13.589C2.29088 12.626 2.08301 11.597 2.08301 10.502C2.08301 9.40708 2.29079 8.37789 2.70634 7.41444C3.1219 6.45098 3.68586 5.61292 4.39822 4.90024C5.11059 4.18754 5.94829 3.62333 6.91132 3.20759C7.87433 2.79185 8.90331 2.58398 9.99826 2.58398C11.0932 2.58398 12.1224 2.79176 13.0858 3.20732C14.0493 3.62287 14.8874 4.18683 15.6001 4.89919C16.3127 5.61157 16.877 6.44927 17.2927 7.4123C17.7084 8.37531 17.9163 9.40429 17.9163 10.4992C17.9163 11.5942 17.7085 12.6234 17.293 13.5868C16.8774 14.5503 16.3135 15.3883 15.6011 16.101C14.8887 16.8137 14.051 17.3779 13.088 17.7937C12.125 18.2094 11.096 18.4173 10.001 18.4173ZM9.99965 17.1673C11.8608 17.1673 13.4372 16.5215 14.7288 15.2298C16.0205 13.9381 16.6663 12.3617 16.6663 10.5006C16.6663 8.63952 16.0205 7.06313 14.7288 5.77146C13.4372 4.4798 11.8608 3.83396 9.99965 3.83396C8.13854 3.83396 6.56215 4.4798 5.27049 5.77146C3.97882 7.06313 3.33299 8.63952 3.33299 10.5006C3.33299 12.3617 3.97882 13.9381 5.27049 15.2298C6.56215 16.5215 8.13854 17.1673 9.99965 17.1673Z" />
    </symbol>

    <symbol viewBox="0 0 24 24" id="icon-add-polis">
        <path d="M11.25 12.75H5.5V11.25H11.25V5.5H12.7499V11.25H18.5V12.75H12.7499V18.5H11.25V12.75Z" />
    </symbol>

    <symbol viewBox="0 0 16 17" id="back-link-form">
        <path d="M9.33172 12.2689L5.5625 8.49969L9.33172 4.73047L10.0343 5.43302L6.9676 8.49969L10.0343 11.5664L9.33172 12.2689Z" />
    </symbol>

    <symbol viewBox="0 0 24 24" id="clinics-view-list">
        <path d="M9.61538 18.5008V17.5008H20V18.5008H9.61538ZM9.61538 12.5008V11.5008H20V12.5008H9.61538ZM9.61538 6.50075V5.50075H20V6.50075H9.61538ZM5.32692 19.3277C4.96202 19.3277 4.64964 19.1978 4.38978 18.9379C4.12993 18.678 4 18.3657 4 18.0008C4 17.6359 4.12993 17.3235 4.38978 17.0636C4.64964 16.8038 4.96202 16.6738 5.32692 16.6738C5.69182 16.6738 6.00421 16.8038 6.26408 17.0636C6.52393 17.3235 6.65385 17.6359 6.65385 18.0008C6.65385 18.3657 6.52393 18.678 6.26408 18.9379C6.00421 19.1978 5.69182 19.3277 5.32692 19.3277ZM5.32692 13.3277C4.96202 13.3277 4.64964 13.1978 4.38978 12.9379C4.12993 12.678 4 12.3657 4 12.0008C4 11.6359 4.12993 11.3235 4.38978 11.0636C4.64964 10.8038 4.96202 10.6738 5.32692 10.6738C5.69182 10.6738 6.00421 10.8038 6.26408 11.0636C6.52393 11.3235 6.65385 11.6359 6.65385 12.0008C6.65385 12.3657 6.52393 12.678 6.26408 12.9379C6.00421 13.1978 5.69182 13.3277 5.32692 13.3277ZM5.32692 7.32768C4.96202 7.32768 4.64964 7.19775 4.38978 6.9379C4.12993 6.67804 4 6.36565 4 6.00075C4 5.63585 4.12993 5.32347 4.38978 5.0636C4.64964 4.80375 4.96202 4.67383 5.32692 4.67383C5.69182 4.67383 6.00421 4.80375 6.26408 5.0636C6.52393 5.32347 6.65385 5.63585 6.65385 6.00075C6.65385 6.36565 6.52393 6.67804 6.26408 6.9379C6.00421 7.19775 5.69182 7.32768 5.32692 7.32768Z" />
    </symbol>

    <symbol viewBox="0 0 24 24" id="clinics-view-map">
        <path d="M12.0016 21.5C10.6877 21.5 9.45268 21.2506 8.29655 20.752C7.1404 20.2533 6.13472 19.5765 5.2795 18.7217C4.42427 17.8669 3.74721 16.8616 3.24833 15.706C2.74944 14.5504 2.5 13.3156 2.5 12.0017C2.5 10.6877 2.74933 9.45268 3.248 8.29655C3.74667 7.1404 4.42342 6.13472 5.27825 5.2795C6.1331 4.42427 7.13834 3.74721 8.29398 3.24833C9.44959 2.74944 10.6844 2.5 11.9983 2.5C13.3122 2.5 14.5473 2.74933 15.7034 3.248C16.8596 3.74667 17.8652 4.42342 18.7205 5.27825C19.5757 6.1331 20.2527 7.13834 20.7516 8.29398C21.2505 9.44959 21.5 10.6844 21.5 11.9983C21.5 13.3122 21.2506 14.5473 20.752 15.7034C20.2533 16.8596 19.5765 17.8652 18.7217 18.7205C17.8669 19.5757 16.8616 20.2527 15.706 20.7516C14.5504 21.2505 13.3156 21.5 12.0016 21.5ZM11 19.95V18C10.45 18 9.97914 17.8041 9.58748 17.4125C9.19581 17.0208 8.99998 16.55 8.99998 16V15L4.19998 10.2C4.14998 10.5 4.10414 10.8 4.06248 11.1C4.02081 11.4 3.99998 11.7 3.99998 12C3.99998 14.0166 4.66248 15.7833 5.98748 17.3C7.31248 18.8166 8.98331 19.7 11 19.95ZM17.9 17.4C18.2333 17.0333 18.5333 16.6375 18.8 16.2125C19.0666 15.7875 19.2875 15.3458 19.4625 14.8875C19.6375 14.4291 19.7708 13.9583 19.8625 13.475C19.9541 12.9916 20 12.5 20 12C20 10.3618 19.5474 8.86573 18.6423 7.51173C17.7372 6.15774 16.5231 5.18075 15 4.58075V4.99998C15 5.54998 14.8041 6.02081 14.4125 6.41248C14.0208 6.80414 13.55 6.99998 13 6.99998H11V8.99998C11 9.28331 10.9041 9.52081 10.7125 9.71248C10.5208 9.90414 10.2833 9.99998 9.99998 9.99998H7.99998V12H14C14.2833 12 14.5208 12.0958 14.7125 12.2875C14.9041 12.4791 15 12.7166 15 13V16H16C16.4333 16 16.825 16.1291 17.175 16.3875C17.525 16.6458 17.7666 16.9833 17.9 17.4Z" />
    </symbol>

    <symbol viewBox="0 0 24 24" id="clinics-status-success">
        <path d="M10.9999 12.8846C11.2512 12.8846 11.4614 12.7984 11.6307 12.6259C11.7999 12.4535 11.8845 12.2448 11.8845 12C11.8845 11.7487 11.7999 11.5384 11.6307 11.3692C11.4614 11.2 11.2512 11.1154 10.9999 11.1154C10.755 11.1154 10.5464 11.2 10.3739 11.3692C10.2015 11.5384 10.1153 11.7487 10.1153 12C10.1153 12.2448 10.2015 12.4535 10.3739 12.6259C10.5464 12.7984 10.755 12.8846 10.9999 12.8846ZM6.99989 20.5V19L13.4999 18.1538V6.66343C13.4999 6.34931 13.4009 6.07303 13.2028 5.83458C13.0047 5.59611 12.757 5.46021 12.4595 5.42688L7.30761 4.74995V3.25L12.673 3.95768C13.3486 4.05896 13.9053 4.36216 14.3432 4.86728C14.781 5.37241 14.9999 5.96279 14.9999 6.63843V19.4192L6.99989 20.5ZM3.73071 20.5V19H5.49991V5.05768C5.49991 4.54229 5.67652 4.11217 6.02974 3.7673C6.38294 3.42243 6.8089 3.25 7.30761 3.25H16.6922C17.2075 3.25 17.6377 3.42243 17.9825 3.7673C18.3274 4.11217 18.4999 4.54229 18.4999 5.05768V19H20.2691V20.5H3.73071ZM6.99989 19H16.9999V5.05768C16.9999 4.96793 16.971 4.8942 16.9133 4.8365C16.8556 4.7788 16.7819 4.74995 16.6922 4.74995H7.30761C7.21786 4.74995 7.14414 4.7788 7.08644 4.8365C7.02874 4.8942 6.99989 4.96793 6.99989 5.05768V19Z" />
    </symbol>

    <symbol viewBox="0 0 24 24" id="clinics-status-guarantee">
        <path d="M13.8269 21.5V18.8577L19.2557 13.4538C19.3801 13.3359 19.5143 13.25 19.6585 13.1961C19.8026 13.1423 19.9468 13.1154 20.091 13.1154C20.2482 13.1154 20.4003 13.1449 20.5473 13.2038C20.6942 13.2628 20.8278 13.3513 20.948 13.4692L21.873 14.4038C21.9807 14.5282 22.064 14.6628 22.123 14.8077C22.182 14.9525 22.2115 15.0974 22.2115 15.2423C22.2115 15.3871 22.1845 15.5346 22.1307 15.6846C22.0769 15.8346 21.991 15.9718 21.873 16.0961L16.4692 21.5H13.8269ZM15.0192 20.3077H15.9692L19.2154 17.0461L18.7654 16.5612L18.2904 16.1019L15.0192 19.3577V20.3077ZM6.3077 21.5C5.80257 21.5 5.375 21.325 5.025 20.975C4.675 20.625 4.5 20.1974 4.5 19.6923V4.3077C4.5 3.80257 4.675 3.375 5.025 3.025C5.375 2.675 5.80257 2.5 6.3077 2.5H14.25L19.5 7.74995V10.548H18V8.49995H13.5V3.99998H6.3077C6.23077 3.99998 6.16024 4.03203 6.09612 4.09613C6.03202 4.16024 5.99997 4.23077 5.99997 4.3077V19.6923C5.99997 19.7692 6.03202 19.8397 6.09612 19.9038C6.16024 19.9679 6.23077 20 6.3077 20H11.6346V21.5H6.3077ZM18.7654 16.5612L18.2904 16.1019L19.2154 17.0461L18.7654 16.5612Z" />
    </symbol>

    <symbol viewBox="0 0 24 24" id="clinics-bookmark">
        <path d="M5.5 20.2499V5.3077C5.5 4.80257 5.675 4.375 6.025 4.025C6.375 3.675 6.80257 3.5 7.3077 3.5H16.6922C17.1974 3.5 17.625 3.675 17.975 4.025C18.325 4.375 18.5 4.80257 18.5 5.3077V20.2499L12 17.4615L5.5 20.2499ZM6.99997 17.95L12 15.8L17 17.95V5.3077C17 5.23077 16.9679 5.16024 16.9038 5.09613C16.8397 5.03203 16.7692 4.99998 16.6922 4.99998H7.3077C7.23077 4.99998 7.16024 5.03203 7.09613 5.09613C7.03202 5.16024 6.99997 5.23077 6.99997 5.3077V17.95Z" />
    </symbol>

    <symbol viewBox="0 0 24 24" id="clinics-bookmark-active">
        <path d="M5.5 20.2499V5.3077C5.5 4.80257 5.675 4.375 6.025 4.025C6.375 3.675 6.80257 3.5 7.3077 3.5H16.6922C17.1974 3.5 17.625 3.675 17.975 4.025C18.325 4.375 18.5 4.80257 18.5 5.3077V20.2499L12 17.4615L5.5 20.2499Z" />
    </symbol>

    <symbol viewBox="0 0 14 15" id="clinics-sort">
        <path d="M1.75 4V5.16667H5.25V4H1.75ZM1.75 6.91667V8.08333H8.75V6.91667H1.75ZM1.75 9.83333V11H12.25V9.83333H1.75Z" />
    </symbol>

    <symbol viewBox="0 0 20 20" id="clinics-filter">
        <path d="M9.37504 17.2923V12.709H10.625V14.3757H17.2917V15.6256H10.625V17.2923H9.37504ZM2.70837 15.6256V14.3757H7.29167V15.6256H2.70837ZM6.04171 12.2923V10.6256H2.70837V9.37565H6.04171V7.70898H7.29167V12.2923H6.04171ZM9.37504 10.6256V9.37565H17.2917V10.6256H9.37504ZM12.7084 7.29228V2.70898H13.9583V4.37565H17.2917V5.62561H13.9583V7.29228H12.7084ZM2.70837 5.62561V4.37565H10.625V5.62561H2.70837Z" />
    </symbol>

    <symbol viewBox="0 0 12 12" id="clinics-filter-param-remove">
        <path d="M10.1477 2.64775C10.3674 2.42808 10.3674 2.07192 10.1477 1.85225C9.92808 1.63258 9.57192 1.63258 9.35225 1.85225L6 5.2045L2.64775 1.85225C2.42808 1.63258 2.07192 1.63258 1.85225 1.85225C1.63258 2.07192 1.63258 2.42808 1.85225 2.64775L5.2045 6L1.85225 9.35225C1.63258 9.57192 1.63258 9.92808 1.85225 10.1477C2.07192 10.3674 2.42808 10.3674 2.64775 10.1477L6 6.7955L9.35225 10.1477C9.57192 10.3674 9.92808 10.3674 10.1477 10.1477C10.3674 9.92808 10.3674 9.57192 10.1477 9.35225L6.7955 6L10.1477 2.64775Z" />
    </symbol>

    <symbol viewBox="0 0 20 20" id="clinics-filter-search">
        <path d="M9.16667 15.8333C12.8486 15.8333 15.8333 12.8486 15.8333 9.16667C15.8333 5.48477 12.8486 2.5 9.16667 2.5C5.48477 2.5 2.5 5.48477 2.5 9.16667C2.5 12.8486 5.48477 15.8333 9.16667 15.8333Z" stroke-width="1.6" stroke-linecap="round" stroke-linejoin="round" />
        <path d="M17.5 17.5L13.875 13.875" stroke-width="1.6" stroke-linecap="round" stroke-linejoin="round" />
    </symbol>

    <symbol viewBox="0 0 24 24" id="clinics-map-detail-close">
        <path d="M6.40002 18.6534L5.34619 17.5995L10.9462 11.9995L5.34619 6.39953L6.40002 5.3457L12 10.9457L17.6 5.3457L18.6538 6.39953L13.0538 11.9995L18.6538 17.5995L17.6 18.6534L12 13.0534L6.40002 18.6534Z" />
    </symbol>

    <symbol viewBox="0 0 48 48" id="clinics-map-list-link">
        <path d="M10 29V27H38V29H10ZM10 21V19H38V21H10Z" />
    </symbol>

    <symbol viewBox="0 0 48 48" id="clinics-map-list-close">
        <path d="M12.7991 37.3067L10.6914 35.1991L21.8914 23.9991L10.6914 12.7991L12.7991 10.6914L23.9991 21.8914L35.1991 10.6914L37.3067 12.7991L26.1067 23.9991L37.3067 35.1991L35.1991 37.3067L23.9991 26.1067L12.7991 37.3067Z" />
    </symbol>

</svg>